<?xml version="1.0" encoding="UTF-8"?>
<!DOCTYPE svg PUBLIC "-//W3C//DTD SVG 1.1//EN" "http://www.w3.org/Graphics/SVG/1.1/DTD/svg11.dtd">
<svg xmlns="http://www.w3.org/2000/svg" style="background-color: rgb(255, 255, 255);" xmlns:xlink="http://www.w3.org/1999/xlink" width="1073px" height="623px" version="1.1"><defs/><g transform="translate(0.5,0.5)"><rect x="31" y="51" width="100" height="40" fill="#ffffff" stroke="#000000" pointer-events="none"/><path d="M 81 91 L 81 601" fill="none" stroke="#000000" stroke-miterlimit="10" stroke-dasharray="3 3" pointer-events="none"/><g fill="#000000" font-family="Helvetica" text-anchor="middle" font-size="12px"><text x="80.75" y="75.5">Environment</text></g><rect x="76" y="121" width="10" height="320" fill="#ffffff" stroke="#000000" pointer-events="none"/><rect x="76" y="491" width="10" height="80" fill="#ffffff" stroke="#000000" pointer-events="none"/><rect x="221" y="51" width="110" height="40" fill="#ffffff" stroke="#000000" pointer-events="none"/><path d="M 276 91 L 276 601" fill="none" stroke="#000000" stroke-miterlimit="10" stroke-dasharray="3 3" pointer-events="none"/><g fill="#000000" font-family="Helvetica" text-anchor="middle" font-size="12px"><text x="275.75" y="75.5">:LineGraphUtility</text></g><rect x="271" y="131" width="10" height="310" fill="#ffffff" stroke="#000000" pointer-events="none"/><rect x="271" y="501" width="10" height="60" fill="#ffffff" stroke="#000000" pointer-events="none"/><rect x="401" y="51" width="100" height="40" fill="#ffffff" stroke="#000000" pointer-events="none"/><path d="M 451 91 L 451 601" fill="none" stroke="#000000" stroke-miterlimit="10" stroke-dasharray="3 3" pointer-events="none"/><g fill="#000000" font-family="Helvetica" text-anchor="middle" font-size="12px"><text x="450.75" y="75.5">:Topology</text></g><rect x="446" y="141" width="10" height="30" fill="#ffffff" stroke="#000000" pointer-events="none"/><rect x="551" y="51" width="100" height="40" fill="#ffffff" stroke="#000000" pointer-events="none"/><path d="M 601 91 L 601 601" fill="none" stroke="#000000" stroke-miterlimit="10" stroke-dasharray="3 3" pointer-events="none"/><g fill="#000000" font-family="Helvetica" text-anchor="middle" font-size="12px"><text x="600.75" y="75.5">:MapProvider</text></g><rect x="596" y="211" width="10" height="50" fill="#ffffff" stroke="#000000" pointer-events="none"/><rect x="751" y="51" width="110" height="40" fill="#ffffff" stroke="#000000" pointer-events="none"/><path d="M 806 91 L 806 601" fill="none" stroke="#000000" stroke-miterlimit="10" stroke-dasharray="3 3" pointer-events="none"/><g fill="#000000" font-family="Helvetica" text-anchor="middle" font-size="12px"><text x="805.75" y="75.5">:PostGisProvider</text></g><rect x="801" y="221" width="10" height="30" fill="#ffffff" stroke="#000000" pointer-events="none"/><rect x="891" y="51" width="100" height="40" fill="#ffffff" stroke="#000000" pointer-events="none"/><path d="M 941 91 L 941 601" fill="none" stroke="#000000" stroke-miterlimit="10" stroke-dasharray="3 3" pointer-events="none"/><g fill="#000000" font-family="Helvetica" text-anchor="middle" font-size="12px"><text x="940.75" y="75.5">:GraphBuilder</text></g><rect x="936" y="306" width="10" height="120" fill="#ffffff" stroke="#000000" pointer-events="none"/><rect x="946" y="335" width="10" height="20" fill="#ffffff" stroke="#000000" pointer-events="none"/><path d="M 951 315 L 976 315 L 976 335 L 964.12 335" fill="none" stroke="#000000" stroke-miterlimit="10" stroke-dasharray="3 3" pointer-events="none"/><path d="M 957.12 335 L 964.12 331.5 L 964.12 338.5 Z" fill="#000000" stroke="#000000" stroke-miterlimit="10" pointer-events="none"/><g fill="#000000" font-family="Helvetica" font-size="11px"><rect fill="#ffffff" stroke="none" x="980" y="317" width="63" height="14" stroke-width="0"/><text x="980" y="326.5">buildGraph()</text></g><rect x="946" y="395" width="10" height="20" fill="#ffffff" stroke="#000000" pointer-events="none"/><path d="M 951 375 L 976 375 L 976 395 L 964.12 395" fill="none" stroke="#000000" stroke-miterlimit="10" stroke-dasharray="3 3" pointer-events="none"/><path d="M 957.12 395 L 964.12 391.5 L 964.12 398.5 Z" fill="#000000" stroke="#000000" stroke-miterlimit="10" pointer-events="none"/><g fill="#000000" font-family="Helvetica" font-size="11px"><rect fill="#ffffff" stroke="none" x="980" y="377" width="83" height="14" stroke-width="0"/><text x="980" y="386.5">buildLineGraph()</text></g><rect x="936" y="511" width="10" height="30" fill="#ffffff" stroke="#000000" pointer-events="none"/><path d="M 86 131 L 262.88 131" fill="none" stroke="#000000" stroke-miterlimit="10" stroke-dasharray="3 3" pointer-events="none"/><path d="M 269.88 131 L 262.88 134.5 L 262.88 127.5 Z" fill="#000000" stroke="#000000" stroke-miterlimit="10" pointer-events="none"/><g fill="#000000" font-family="Helvetica" text-anchor="middle" font-size="11px"><rect fill="#ffffff" stroke="none" x="105" y="116" width="149" height="14" stroke-width="0"/><text x="179" y="125">updateRestrictionsAndCosts()</text></g><path d="M 281 141 L 437.88 141" fill="none" stroke="#000000" stroke-miterlimit="10" stroke-dasharray="3 3" pointer-events="none"/><path d="M 444.88 141 L 437.88 144.5 L 437.88 137.5 Z" fill="#000000" stroke="#000000" stroke-miterlimit="10" pointer-events="none"/><g fill="#000000" font-family="Helvetica" text-anchor="middle" font-size="11px"><rect fill="#ffffff" stroke="none" x="295" y="126" width="140" height="14" stroke-width="0"/><text x="364" y="135">clearRestrictionsAndCosts()</text></g><path d="M 446 170 L 283.24 170" fill="none" stroke="#000000" stroke-miterlimit="10" stroke-dasharray="3 3" pointer-events="none"/><path d="M 291.12 165.5 L 282.12 170 L 291.12 174.5" fill="none" stroke="#000000" stroke-miterlimit="10" pointer-events="none"/><path d="M 281 211 L 587.88 211" fill="none" stroke="#000000" stroke-miterlimit="10" stroke-dasharray="3 3" pointer-events="none"/><path d="M 594.88 211 L 587.88 214.5 L 587.88 207.5 Z" fill="#000000" stroke="#000000" stroke-miterlimit="10" pointer-events="none"/><g fill="#000000" font-family="Helvetica" text-anchor="middle" font-size="11px"><rect fill="#ffffff" stroke="none" x="354" y="196" width="172" height="14" stroke-width="0"/><text x="439" y="205">setRestrictionsAndCosts(topology)</text></g><path d="M 606 221 L 792.88 221" fill="none" stroke="#000000" stroke-miterlimit="10" stroke-dasharray="3 3" pointer-events="none"/><path d="M 799.88 221 L 792.88 224.5 L 792.88 217.5 Z" fill="#000000" stroke="#000000" stroke-miterlimit="10" pointer-events="none"/><g fill="#000000" font-family="Helvetica" text-anchor="middle" font-size="11px"><rect fill="#ffffff" stroke="none" x="619" y="206" width="172" height="14" stroke-width="0"/><text x="704" y="215">setRestrictionsAndCosts(topology)</text></g><path d="M 801 250 L 608.24 250" fill="none" stroke="#000000" stroke-miterlimit="10" stroke-dasharray="3 3" pointer-events="none"/><path d="M 616.12 245.5 L 607.12 250 L 616.12 254.5" fill="none" stroke="#000000" stroke-miterlimit="10" pointer-events="none"/><path d="M 596 259 L 283.24 259" fill="none" stroke="#000000" stroke-miterlimit="10" stroke-dasharray="3 3" pointer-events="none"/><path d="M 291.12 254.5 L 282.12 259 L 291.12 263.5" fill="none" stroke="#000000" stroke-miterlimit="10" pointer-events="none"/><path d="M 281 306 L 927.88 306" fill="none" stroke="#000000" stroke-miterlimit="10" stroke-dasharray="3 3" pointer-events="none"/><path d="M 934.88 306 L 927.88 309.5 L 927.88 302.5 Z" fill="#000000" stroke="#000000" stroke-miterlimit="10" pointer-events="none"/><g fill="#000000" font-family="Helvetica" text-anchor="middle" font-size="11px"><rect fill="#ffffff" stroke="none" x="526" y="291" width="162" height="14" stroke-width="0"/><text x="606" y="300">«create»(topology, configuration)</text></g><path d="M 936 420 L 283.24 420" fill="none" stroke="#000000" stroke-miterlimit="10" stroke-dasharray="3 3" pointer-events="none"/><path d="M 291.12 415.5 L 282.12 420 L 291.12 424.5" fill="none" stroke="#000000" stroke-miterlimit="10" pointer-events="none"/><g fill="#000000" font-family="Helvetica" text-anchor="middle" font-size="11px"><rect fill="#ffffff" stroke="none" x="297" y="405" width="66" height="14" stroke-width="0"/><text x="329" y="414">GraphBuilder</text></g><path d="M 271 435 L 88.24 435" fill="none" stroke="#000000" stroke-miterlimit="10" stroke-dasharray="3 3" pointer-events="none"/><path d="M 96.12 430.5 L 87.12 435 L 96.12 439.5" fill="none" stroke="#000000" stroke-miterlimit="10" pointer-events="none"/><path d="M 86 501 L 262.88 501" fill="none" stroke="#000000" stroke-miterlimit="10" stroke-dasharray="3 3" pointer-events="none"/><path d="M 269.88 501 L 262.88 504.5 L 262.88 497.5 Z" fill="#000000" stroke="#000000" stroke-miterlimit="10" pointer-events="none"/><g fill="#000000" font-family="Helvetica" text-anchor="middle" font-size="11px"><rect fill="#ffffff" stroke="none" x="142" y="486" width="76" height="14" stroke-width="0"/><text x="179" y="495">getLineGraph()</text></g><path d="M 281 511 L 927.88 511" fill="none" stroke="#000000" stroke-miterlimit="10" stroke-dasharray="3 3" pointer-events="none"/><path d="M 934.88 511 L 927.88 514.5 L 927.88 507.5 Z" fill="#000000" stroke="#000000" stroke-miterlimit="10" pointer-events="none"/><g fill="#000000" font-family="Helvetica" text-anchor="middle" font-size="11px"><rect fill="#ffffff" stroke="none" x="558" y="496" width="104" height="14" stroke-width="0"/><text x="609" y="505">getBoostLineGraph()</text></g><path d="M 936 540 L 283.24 540" fill="none" stroke="#000000" stroke-miterlimit="10" stroke-dasharray="3 3" pointer-events="none"/><path d="M 291.12 535.5 L 282.12 540 L 291.12 544.5" fill="none" stroke="#000000" stroke-miterlimit="10" pointer-events="none"/><g fill="#000000" font-family="Helvetica" text-anchor="middle" font-size="11px"><rect fill="#ffffff" stroke="none" x="300" y="525" width="78" height="14" stroke-width="0"/><text x="338" y="534">LineGraphType</text></g><path d="M 271 558 L 88.24 558" fill="none" stroke="#000000" stroke-miterlimit="10" stroke-dasharray="3 3" pointer-events="none"/><path d="M 96.12 553.5 L 87.12 558 L 96.12 562.5" fill="none" stroke="#000000" stroke-miterlimit="10" pointer-events="none"/><g fill="#000000" font-family="Helvetica" text-anchor="middle" font-size="11px"><rect fill="#ffffff" stroke="none" x="114" y="543" width="78" height="14" stroke-width="0"/><text x="152" y="552">LineGraphType</text></g><path d="M 1 1 L 191 1 L 191 16 L 181 31 L 1 31 Z" fill="#ffffff" stroke="#000000" stroke-miterlimit="10" pointer-events="none"/><path d="M 191 1 L 1071 1 L 1071 621 L 1 621 L 1 31" fill="none" stroke="#000000" stroke-miterlimit="10" pointer-events="none"/><g fill="#000000" font-family="Helvetica" text-anchor="middle" font-size="12px"><text x="96.5" y="20.5">update restrictions and costs</text></g></g></svg>