<?xml version="1.0" encoding="UTF-8"?>
<!DOCTYPE svg PUBLIC "-//W3C//DTD SVG 1.1//EN" "http://www.w3.org/Graphics/SVG/1.1/DTD/svg11.dtd">
<svg xmlns="http://www.w3.org/2000/svg" style="background-color: rgb(255, 255, 255);" xmlns:xlink="http://www.w3.org/1999/xlink" width="1133px" height="1123px" version="1.1"><defs/><g transform="translate(0.5,0.5)"><rect x="31" y="51" width="100" height="40" fill="none" stroke="#000000" pointer-events="none"/><path d="M 81 91 L 81 1101" fill="none" stroke="#000000" stroke-miterlimit="10" stroke-dasharray="3 3" pointer-events="none"/><g fill="#000000" font-family="Helvetica" text-anchor="middle" font-size="12px"><text x="80.75" y="75.5">Environment</text></g><rect x="76" y="131" width="10" height="800" fill="#ffffff" stroke="#000000" pointer-events="none"/><rect x="76" y="991" width="10" height="80" fill="#ffffff" stroke="#000000" pointer-events="none"/><rect x="201" y="51" width="110" height="40" fill="none" stroke="#000000" pointer-events="none"/><path d="M 256 91 L 256 1101" fill="none" stroke="#000000" stroke-miterlimit="10" stroke-dasharray="3 3" pointer-events="none"/><g fill="#000000" font-family="Helvetica" text-anchor="middle" font-size="12px"><text x="255.75" y="75.5">:LineGraphUtility</text></g><rect x="251" y="141" width="10" height="790" fill="#ffffff" stroke="#000000" pointer-events="none"/><rect x="251" y="1001" width="10" height="60" fill="#ffffff" stroke="#000000" pointer-events="none"/><rect x="371" y="51" width="130" height="40" fill="none" stroke="#000000" pointer-events="none"/><path d="M 436 91 L 436 1101" fill="none" stroke="#000000" stroke-miterlimit="10" stroke-dasharray="3 3" pointer-events="none"/><g fill="#000000" font-family="Helvetica" text-anchor="middle" font-size="12px"><text x="435.75" y="75.5">:ConfigurationReader</text></g><rect x="431" y="156" width="10" height="35" fill="#ffffff" stroke="#000000" pointer-events="none"/><rect x="431" y="231" width="10" height="30" fill="#ffffff" stroke="#000000" pointer-events="none"/><rect x="551" y="51" width="100" height="40" fill="none" stroke="#000000" pointer-events="none"/><path d="M 601 91 L 601 1101" fill="none" stroke="#000000" stroke-miterlimit="10" stroke-dasharray="3 3" pointer-events="none"/><g fill="#000000" font-family="Helvetica" text-anchor="middle" font-size="12px"><text x="600.75" y="75.5">:MapProvider</text></g><rect x="596" y="312" width="10" height="59" fill="#ffffff" stroke="#000000" pointer-events="none"/><rect x="596" y="421" width="10" height="190" fill="#ffffff" stroke="#000000" pointer-events="none"/><rect x="596" y="651" width="10" height="50" fill="#ffffff" stroke="#000000" pointer-events="none"/><rect x="781" y="51" width="110" height="40" fill="none" stroke="#000000" pointer-events="none"/><path d="M 836 91 L 836 1101" fill="none" stroke="#000000" stroke-miterlimit="10" stroke-dasharray="3 3" pointer-events="none"/><g fill="#000000" font-family="Helvetica" text-anchor="middle" font-size="12px"><text x="835.75" y="75.5">:PostGisProvider</text></g><rect x="831" y="321" width="10" height="30" fill="#ffffff" stroke="#000000" pointer-events="none"/><rect x="831" y="425" width="10" height="31" fill="#ffffff" stroke="#000000" pointer-events="none"/><rect x="831" y="490" width="10" height="31" fill="#ffffff" stroke="#000000" pointer-events="none"/><rect x="831" y="560" width="10" height="31" fill="#ffffff" stroke="#000000" pointer-events="none"/><rect x="831" y="660" width="10" height="31" fill="#ffffff" stroke="#000000" pointer-events="none"/><rect x="941" y="51" width="100" height="40" fill="none" stroke="#000000" pointer-events="none"/><path d="M 991 91 L 991 1101" fill="none" stroke="#000000" stroke-miterlimit="10" stroke-dasharray="3 3" pointer-events="none"/><g fill="#000000" font-family="Helvetica" text-anchor="middle" font-size="12px"><text x="990.75" y="75.5">:GraphBuilder</text></g><rect x="986" y="760" width="10" height="131" fill="#ffffff" stroke="#000000" pointer-events="none"/><rect x="996" y="790" width="10" height="21" fill="none" stroke="#000000" pointer-events="none"/><path d="M 1001 770 L 1026 770 L 1026 790 L 1014.12 790" fill="none" stroke="#000000" stroke-miterlimit="10" stroke-dasharray="3 3" pointer-events="none"/><path d="M 1007.12 790 L 1014.12 786.5 L 1014.12 793.5 Z" fill="#000000" stroke="#000000" stroke-miterlimit="10" pointer-events="none"/><g fill="#000000" font-family="Helvetica" font-size="11px"><rect fill="#ffffff" stroke="none" x="1030" y="772" width="63" height="14" stroke-width="0"/><text x="1030" y="781.5">buildGraph()</text></g><rect x="996" y="847" width="10" height="25" fill="none" stroke="#000000" pointer-events="none"/><path d="M 1001 827 L 1026 827 L 1026 847 L 1014.12 847" fill="none" stroke="#000000" stroke-miterlimit="10" stroke-dasharray="3 3" pointer-events="none"/><path d="M 1007.12 847 L 1014.12 843.5 L 1014.12 850.5 Z" fill="#000000" stroke="#000000" stroke-miterlimit="10" pointer-events="none"/><g fill="#000000" font-family="Helvetica" font-size="11px"><rect fill="#ffffff" stroke="none" x="1030" y="829" width="83" height="14" stroke-width="0"/><text x="1030" y="838.5">buildLineGraph()</text></g><rect x="986" y="1010" width="10" height="31" fill="#ffffff" stroke="#000000" pointer-events="none"/><path d="M 86 141 L 242.88 141" fill="none" stroke="#000000" stroke-miterlimit="10" stroke-dasharray="3 3" pointer-events="none"/><path d="M 249.88 141 L 242.88 144.5 L 242.88 137.5 Z" fill="#000000" stroke="#000000" stroke-miterlimit="10" pointer-events="none"/><g fill="#000000" font-family="Helvetica" text-anchor="middle" font-size="11px"><rect fill="#ffffff" stroke="none" x="104" y="126" width="132" height="14" stroke-width="0"/><text x="169" y="135">«create»(configurationFile)</text></g><path d="M 251 911 L 88.24 911" fill="none" stroke="#000000" stroke-miterlimit="10" stroke-dasharray="3 3" pointer-events="none"/><path d="M 96.12 906.5 L 87.12 911 L 96.12 915.5" fill="none" stroke="#000000" stroke-miterlimit="10" pointer-events="none"/><g fill="#000000" font-family="Helvetica" text-anchor="middle" font-size="11px"><rect fill="#ffffff" stroke="none" x="102" y="896" width="79" height="14" stroke-width="0"/><text x="141" y="905">LineGraphUtility</text></g><path d="M 261 156 L 422.88 156" fill="none" stroke="#000000" stroke-miterlimit="10" stroke-dasharray="3 3" pointer-events="none"/><path d="M 429.88 156 L 422.88 159.5 L 422.88 152.5 Z" fill="#000000" stroke="#000000" stroke-miterlimit="10" pointer-events="none"/><g fill="#000000" font-family="Helvetica" text-anchor="middle" font-size="11px"><rect fill="#ffffff" stroke="none" x="281" y="141" width="132" height="14" stroke-width="0"/><text x="346" y="150">«create»(configurationFile)</text></g><path d="M 431 189 L 263.24 189" fill="none" stroke="#000000" stroke-miterlimit="10" stroke-dasharray="3 3" pointer-events="none"/><path d="M 271.12 184.5 L 262.12 189 L 271.12 193.5" fill="none" stroke="#000000" stroke-miterlimit="10" pointer-events="none"/><g fill="#000000" font-family="Helvetica" text-anchor="middle" font-size="11px"><rect fill="#ffffff" stroke="none" x="271" y="174" width="102" height="14" stroke-width="0"/><text x="321" y="183">ConfigurationReader</text></g><path d="M 261 231 L 422.88 231" fill="none" stroke="#000000" stroke-miterlimit="10" stroke-dasharray="3 3" pointer-events="none"/><path d="M 429.88 231 L 422.88 234.5 L 422.88 227.5 Z" fill="#000000" stroke="#000000" stroke-miterlimit="10" pointer-events="none"/><g fill="#000000" font-family="Helvetica" text-anchor="middle" font-size="11px"><rect fill="#ffffff" stroke="none" x="305" y="216" width="83" height="14" stroke-width="0"/><text x="346" y="225">fillConfiguration()</text></g><path d="M 431 260 L 263.24 260" fill="none" stroke="#000000" stroke-miterlimit="10" stroke-dasharray="3 3" pointer-events="none"/><path d="M 271.12 255.5 L 262.12 260 L 271.12 264.5" fill="none" stroke="#000000" stroke-miterlimit="10" pointer-events="none"/><g fill="#000000" font-family="Helvetica" text-anchor="middle" font-size="11px"><rect fill="#ffffff" stroke="none" x="279" y="245" width="66" height="14" stroke-width="0"/><text x="311" y="254">Configuration</text></g><path d="M 261 312 L 587.88 312" fill="none" stroke="#000000" stroke-miterlimit="10" stroke-dasharray="3 3" pointer-events="none"/><path d="M 594.88 312 L 587.88 315.5 L 587.88 308.5 Z" fill="#000000" stroke="#000000" stroke-miterlimit="10" pointer-events="none"/><g fill="#000000" font-family="Helvetica" text-anchor="middle" font-size="11px"><rect fill="#ffffff" stroke="none" x="372" y="297" width="115" height="14" stroke-width="0"/><text x="429" y="306">«create»(configuration)</text></g><path d="M 596 368 L 263.24 368" fill="none" stroke="#000000" stroke-miterlimit="10" stroke-dasharray="3 3" pointer-events="none"/><path d="M 271.12 363.5 L 262.12 368 L 271.12 372.5" fill="none" stroke="#000000" stroke-miterlimit="10" pointer-events="none"/><g fill="#000000" font-family="Helvetica" text-anchor="middle" font-size="11px"><rect fill="#ffffff" stroke="none" x="280" y="353" width="64" height="14" stroke-width="0"/><text x="311" y="362">MapProvider</text></g><path d="M 606 321 L 822.88 321" fill="none" stroke="#000000" stroke-miterlimit="10" stroke-dasharray="3 3" pointer-events="none"/><path d="M 829.88 321 L 822.88 324.5 L 822.88 317.5 Z" fill="#000000" stroke="#000000" stroke-miterlimit="10" pointer-events="none"/><g fill="#000000" font-family="Helvetica" text-anchor="middle" font-size="11px"><rect fill="#ffffff" stroke="none" x="662" y="306" width="115" height="14" stroke-width="0"/><text x="719" y="315">«create»(configuration)</text></g><path d="M 831 350 L 608.24 350" fill="none" stroke="#000000" stroke-miterlimit="10" stroke-dasharray="3 3" pointer-events="none"/><path d="M 616.12 345.5 L 607.12 350 L 616.12 354.5" fill="none" stroke="#000000" stroke-miterlimit="10" pointer-events="none"/><g fill="#000000" font-family="Helvetica" text-anchor="middle" font-size="11px"><rect fill="#ffffff" stroke="none" x="621" y="335" width="82" height="14" stroke-width="0"/><text x="661" y="344">PostGisProvider</text></g><path d="M 261 421 L 587.88 421" fill="none" stroke="#000000" stroke-miterlimit="10" stroke-dasharray="3 3" pointer-events="none"/><path d="M 594.88 421 L 587.88 424.5 L 587.88 417.5 Z" fill="#000000" stroke="#000000" stroke-miterlimit="10" pointer-events="none"/><g fill="#000000" font-family="Helvetica" text-anchor="middle" font-size="11px"><rect fill="#ffffff" stroke="none" x="395" y="406" width="70" height="14" stroke-width="0"/><text x="429" y="415">getTopology()</text></g><path d="M 596 602 L 263.24 602" fill="none" stroke="#000000" stroke-miterlimit="10" stroke-dasharray="3 3" pointer-events="none"/><path d="M 271.12 597.5 L 262.12 602 L 271.12 606.5" fill="none" stroke="#000000" stroke-miterlimit="10" pointer-events="none"/><g fill="#000000" font-family="Helvetica" text-anchor="middle" font-size="11px"><rect fill="#ffffff" stroke="none" x="278" y="587" width="47" height="14" stroke-width="0"/><text x="301" y="596">Topology</text></g><path d="M 606 425 L 822.88 425" fill="none" stroke="#000000" stroke-miterlimit="10" stroke-dasharray="3 3" pointer-events="none"/><path d="M 829.88 425 L 822.88 428.5 L 822.88 421.5 Z" fill="#000000" stroke="#000000" stroke-miterlimit="10" pointer-events="none"/><g fill="#000000" font-family="Helvetica" text-anchor="middle" font-size="11px"><rect fill="#ffffff" stroke="none" x="681" y="410" width="77" height="14" stroke-width="0"/><text x="719" y="419">buildTopology()</text></g><path d="M 831 454 L 608.24 454" fill="none" stroke="#000000" stroke-miterlimit="10" stroke-dasharray="3 3" pointer-events="none"/><path d="M 616.12 449.5 L 607.12 454 L 616.12 458.5" fill="none" stroke="#000000" stroke-miterlimit="10" pointer-events="none"/><path d="M 606 490 L 822.88 490" fill="none" stroke="#000000" stroke-miterlimit="10" stroke-dasharray="3 3" pointer-events="none"/><path d="M 829.88 490 L 822.88 493.5 L 822.88 486.5 Z" fill="#000000" stroke="#000000" stroke-miterlimit="10" pointer-events="none"/><g fill="#000000" font-family="Helvetica" text-anchor="middle" font-size="11px"><rect fill="#ffffff" stroke="none" x="665" y="475" width="110" height="14" stroke-width="0"/><text x="719" y="484">getTopologyVertices()</text></g><path d="M 831 519 L 608.24 519" fill="none" stroke="#000000" stroke-miterlimit="10" stroke-dasharray="3 3" pointer-events="none"/><path d="M 616.12 514.5 L 607.12 519 L 616.12 523.5" fill="none" stroke="#000000" stroke-miterlimit="10" pointer-events="none"/><g fill="#000000" font-family="Helvetica" text-anchor="middle" font-size="11px"><rect fill="#ffffff" stroke="none" x="621" y="504" width="42" height="14" stroke-width="0"/><text x="641" y="513">Vertices</text></g><path d="M 606 560 L 822.88 560" fill="none" stroke="#000000" stroke-miterlimit="10" stroke-dasharray="3 3" pointer-events="none"/><path d="M 829.88 560 L 822.88 563.5 L 822.88 556.5 Z" fill="#000000" stroke="#000000" stroke-miterlimit="10" pointer-events="none"/><g fill="#000000" font-family="Helvetica" text-anchor="middle" font-size="11px"><rect fill="#ffffff" stroke="none" x="669" y="545" width="101" height="14" stroke-width="0"/><text x="719" y="554">getTopologyEdges()</text></g><path d="M 831 589 L 608.24 589" fill="none" stroke="#000000" stroke-miterlimit="10" stroke-dasharray="3 3" pointer-events="none"/><path d="M 616.12 584.5 L 607.12 589 L 616.12 593.5" fill="none" stroke="#000000" stroke-miterlimit="10" pointer-events="none"/><g fill="#000000" font-family="Helvetica" text-anchor="middle" font-size="11px"><rect fill="#ffffff" stroke="none" x="625" y="574" width="33" height="14" stroke-width="0"/><text x="641" y="583">Edges</text></g><path d="M 261 651 L 587.88 651" fill="none" stroke="#000000" stroke-miterlimit="10" stroke-dasharray="3 3" pointer-events="none"/><path d="M 594.88 651 L 587.88 654.5 L 587.88 647.5 Z" fill="#000000" stroke="#000000" stroke-miterlimit="10" pointer-events="none"/><g fill="#000000" font-family="Helvetica" text-anchor="middle" font-size="11px"><rect fill="#ffffff" stroke="none" x="344" y="636" width="172" height="14" stroke-width="0"/><text x="429" y="645">setRestrictionsAndCosts(topology)</text></g><path d="M 596 699 L 263.24 699" fill="none" stroke="#000000" stroke-miterlimit="10" stroke-dasharray="3 3" pointer-events="none"/><path d="M 271.12 694.5 L 262.12 699 L 271.12 703.5" fill="none" stroke="#000000" stroke-miterlimit="10" pointer-events="none"/><path d="M 606 660 L 822.88 660" fill="none" stroke="#000000" stroke-miterlimit="10" stroke-dasharray="3 3" pointer-events="none"/><path d="M 829.88 660 L 822.88 663.5 L 822.88 656.5 Z" fill="#000000" stroke="#000000" stroke-miterlimit="10" pointer-events="none"/><g fill="#000000" font-family="Helvetica" text-anchor="middle" font-size="11px"><rect fill="#ffffff" stroke="none" x="634" y="645" width="172" height="14" stroke-width="0"/><text x="719" y="654">setRestrictionsAndCosts(topology)</text></g><path d="M 831 689 L 608.24 689" fill="none" stroke="#000000" stroke-miterlimit="10" stroke-dasharray="3 3" pointer-events="none"/><path d="M 616.12 684.5 L 607.12 689 L 616.12 693.5" fill="none" stroke="#000000" stroke-miterlimit="10" pointer-events="none"/><path d="M 261 759 L 997.88 759" fill="none" stroke="#000000" stroke-miterlimit="10" stroke-dasharray="3 3" pointer-events="none"/><path d="M 1004.88 759 L 997.88 762.5 L 997.88 755.5 Z" fill="#000000" stroke="#000000" stroke-miterlimit="10" pointer-events="none"/><g fill="#000000" font-family="Helvetica" text-anchor="middle" font-size="11px"><rect fill="#ffffff" stroke="none" x="541" y="744" width="162" height="14" stroke-width="0"/><text x="621" y="753">«create»(topology, configuration)</text></g><path d="M 986 884 L 263.24 884" fill="none" stroke="#000000" stroke-miterlimit="10" stroke-dasharray="3 3" pointer-events="none"/><path d="M 271.12 879.5 L 262.12 884 L 271.12 888.5" fill="none" stroke="#000000" stroke-miterlimit="10" pointer-events="none"/><g fill="#000000" font-family="Helvetica" text-anchor="middle" font-size="11px"><rect fill="#ffffff" stroke="none" x="278" y="869" width="66" height="14" stroke-width="0"/><text x="310" y="878">GraphBuilder</text></g><path d="M 86 1001 L 242.88 1001" fill="none" stroke="#000000" stroke-miterlimit="10" stroke-dasharray="3 3" pointer-events="none"/><path d="M 249.88 1001 L 242.88 1004.5 L 242.88 997.5 Z" fill="#000000" stroke="#000000" stroke-miterlimit="10" pointer-events="none"/><g fill="#000000" font-family="Helvetica" text-anchor="middle" font-size="11px"><rect fill="#ffffff" stroke="none" x="132" y="986" width="76" height="14" stroke-width="0"/><text x="169" y="995">getLineGraph()</text></g><path d="M 261 1010 L 977.88 1010" fill="none" stroke="#000000" stroke-miterlimit="10" stroke-dasharray="3 3" pointer-events="none"/><path d="M 984.88 1010 L 977.88 1013.5 L 977.88 1006.5 Z" fill="#000000" stroke="#000000" stroke-miterlimit="10" pointer-events="none"/><g fill="#000000" font-family="Helvetica" text-anchor="middle" font-size="11px"><rect fill="#ffffff" stroke="none" x="573" y="995" width="104" height="14" stroke-width="0"/><text x="624" y="1004">getBoostLineGraph()</text></g><path d="M 986 1039 L 263.24 1039" fill="none" stroke="#000000" stroke-miterlimit="10" stroke-dasharray="3 3" pointer-events="none"/><path d="M 271.12 1034.5 L 262.12 1039 L 271.12 1043.5" fill="none" stroke="#000000" stroke-miterlimit="10" pointer-events="none"/><g fill="#000000" font-family="Helvetica" text-anchor="middle" font-size="11px"><rect fill="#ffffff" stroke="none" x="272" y="1024" width="78" height="14" stroke-width="0"/><text x="310" y="1033">LineGraphType</text></g><path d="M 251 1058 L 141 1058 Q 131 1058 121 1058 L 88.24 1058" fill="none" stroke="#000000" stroke-miterlimit="10" stroke-dasharray="3 3" pointer-events="none"/><path d="M 96.12 1053.5 L 87.12 1058 L 96.12 1062.5" fill="none" stroke="#000000" stroke-miterlimit="10" pointer-events="none"/><g fill="#000000" font-family="Helvetica" text-anchor="middle" font-size="11px"><rect fill="#ffffff" stroke="none" x="103" y="1043" width="78" height="14" stroke-width="0"/><text x="141" y="1052">LineGraphType</text></g><path d="M 1 1 L 101 1 L 101 16 L 91 31 L 1 31 Z" fill="#ffffff" stroke="#000000" stroke-miterlimit="10" pointer-events="none"/><path d="M 101 1 L 1131 1 L 1131 1121 L 1 1121 L 1 31" fill="none" stroke="#000000" stroke-miterlimit="10" pointer-events="none"/><g fill="#000000" font-family="Helvetica" text-anchor="middle" font-size="12px"><text x="51.5" y="20.5">get linegraph</text></g></g></svg>