<?xml version="1.0" encoding="UTF-8"?>
<!DOCTYPE svg PUBLIC "-//W3C//DTD SVG 1.1//EN" "http://www.w3.org/Graphics/SVG/1.1/DTD/svg11.dtd">
<svg xmlns="http://www.w3.org/2000/svg" style="background-color: rgb(255, 255, 255);" xmlns:xlink="http://www.w3.org/1999/xlink" width="1553px" height="872px" version="1.1"><defs><clipPath id="mx-clip-1065-68-232-44-0"><rect x="1065" y="68" width="232" height="44"/></clipPath><clipPath id="mx-clip-1065-120-232-62-0"><rect x="1065" y="120" width="232" height="62"/></clipPath><clipPath id="mx-clip-735-73-182-14-0"><rect x="735" y="73" width="182" height="14"/></clipPath><clipPath id="mx-clip-735-95-182-60-0"><rect x="735" y="95" width="182" height="60"/></clipPath><clipPath id="mx-clip-405-343-222-14-0"><rect x="405" y="343" width="222" height="14"/></clipPath><clipPath id="mx-clip-405-365-222-60-0"><rect x="405" y="365" width="222" height="60"/></clipPath><clipPath id="mx-clip-225-339-152-94-0"><rect x="225" y="339" width="152" height="94"/></clipPath><clipPath id="mx-clip-225-441-152-12-0"><rect x="225" y="441" width="152" height="12"/></clipPath><clipPath id="mx-clip-25-334-172-84-0"><rect x="25" y="334" width="172" height="84"/></clipPath><clipPath id="mx-clip-25-426-172-26-0"><rect x="25" y="426" width="172" height="26"/></clipPath><clipPath id="mx-clip-25-178-152-84-0"><rect x="25" y="178" width="152" height="84"/></clipPath><clipPath id="mx-clip-25-270-152-12-0"><rect x="25" y="270" width="152" height="12"/></clipPath><clipPath id="mx-clip-225-182-152-14-0"><rect x="225" y="182" width="152" height="14"/></clipPath><clipPath id="mx-clip-225-204-152-12-0"><rect x="225" y="204" width="152" height="12"/></clipPath><clipPath id="mx-clip-25-84-152-14-0"><rect x="25" y="84" width="152" height="14"/></clipPath><clipPath id="mx-clip-25-106-152-26-0"><rect x="25" y="106" width="152" height="26"/></clipPath><clipPath id="mx-clip-423-117-187-14-0"><rect x="423" y="117" width="187" height="14"/></clipPath><clipPath id="mx-clip-423-139-187-40-0"><rect x="423" y="139" width="187" height="40"/></clipPath><clipPath id="mx-clip-1365-141-152-14-0"><rect x="1365" y="141" width="152" height="14"/></clipPath><clipPath id="mx-clip-1365-163-152-12-0"><rect x="1365" y="163" width="152" height="12"/></clipPath><clipPath id="mx-clip-1365-216-152-14-0"><rect x="1365" y="216" width="152" height="14"/></clipPath><clipPath id="mx-clip-1365-238-152-12-0"><rect x="1365" y="238" width="152" height="12"/></clipPath><clipPath id="mx-clip-1365-292-152-14-0"><rect x="1365" y="292" width="152" height="14"/></clipPath><clipPath id="mx-clip-1365-314-152-12-0"><rect x="1365" y="314" width="152" height="12"/></clipPath><clipPath id="mx-clip-1365-370-152-14-0"><rect x="1365" y="370" width="152" height="14"/></clipPath><clipPath id="mx-clip-1365-392-152-12-0"><rect x="1365" y="392" width="152" height="12"/></clipPath><clipPath id="mx-clip-1025-248-132-44-0"><rect x="1025" y="248" width="132" height="44"/></clipPath><clipPath id="mx-clip-1025-300-132-62-0"><rect x="1025" y="300" width="132" height="62"/></clipPath><clipPath id="mx-clip-1175-267-132-14-0"><rect x="1175" y="267" width="132" height="14"/></clipPath><clipPath id="mx-clip-1175-289-132-30-0"><rect x="1175" y="289" width="132" height="30"/></clipPath><clipPath id="mx-clip-1185-419-132-44-0"><rect x="1185" y="419" width="132" height="44"/></clipPath><clipPath id="mx-clip-1185-471-132-22-0"><rect x="1185" y="471" width="132" height="22"/></clipPath><clipPath id="mx-clip-1025-419-132-134-0"><rect x="1025" y="419" width="132" height="134"/></clipPath><clipPath id="mx-clip-1025-561-132-22-0"><rect x="1025" y="561" width="132" height="22"/></clipPath><clipPath id="mx-clip-1025-653-162-14-0"><rect x="1025" y="653" width="162" height="14"/></clipPath><clipPath id="mx-clip-1025-675-162-30-0"><rect x="1025" y="675" width="162" height="30"/></clipPath><clipPath id="mx-clip-1215-621-132-84-0"><rect x="1215" y="621" width="132" height="84"/></clipPath><clipPath id="mx-clip-1215-713-132-22-0"><rect x="1215" y="713" width="132" height="22"/></clipPath><clipPath id="mx-clip-1365-454-152-64-0"><rect x="1365" y="454" width="152" height="64"/></clipPath><clipPath id="mx-clip-1365-526-152-12-0"><rect x="1365" y="526" width="152" height="12"/></clipPath><clipPath id="mx-clip-1365-583-152-54-0"><rect x="1365" y="583" width="152" height="54"/></clipPath><clipPath id="mx-clip-1365-645-152-12-0"><rect x="1365" y="645" width="152" height="12"/></clipPath><clipPath id="mx-clip-735-270-192-14-0"><rect x="735" y="270" width="192" height="14"/></clipPath><clipPath id="mx-clip-735-292-192-42-0"><rect x="735" y="292" width="192" height="42"/></clipPath><clipPath id="mx-clip-435-592-182-14-0"><rect x="435" y="592" width="182" height="14"/></clipPath><clipPath id="mx-clip-435-614-182-30-0"><rect x="435" y="614" width="182" height="30"/></clipPath><clipPath id="mx-clip-435-686-82-14-0"><rect x="435" y="686" width="82" height="14"/></clipPath><clipPath id="mx-clip-435-708-82-30-0"><rect x="435" y="708" width="82" height="30"/></clipPath><clipPath id="mx-clip-565-686-52-34-0"><rect x="565" y="686" width="52" height="34"/></clipPath><clipPath id="mx-clip-565-728-52-12-0"><rect x="565" y="728" width="52" height="12"/></clipPath><clipPath id="mx-clip-706-584-112-14-0"><rect x="706" y="584" width="112" height="14"/></clipPath><clipPath id="mx-clip-706-606-112-12-0"><rect x="706" y="606" width="112" height="12"/></clipPath><clipPath id="mx-clip-715-666-82-14-0"><rect x="715" y="666" width="82" height="14"/></clipPath><clipPath id="mx-clip-715-688-82-12-0"><rect x="715" y="688" width="82" height="12"/></clipPath><clipPath id="mx-clip-845-583-112-14-0"><rect x="845" y="583" width="112" height="14"/></clipPath><clipPath id="mx-clip-845-605-112-12-0"><rect x="845" y="605" width="112" height="12"/></clipPath><clipPath id="mx-clip-845-666-112-14-0"><rect x="845" y="666" width="112" height="14"/></clipPath><clipPath id="mx-clip-845-688-112-12-0"><rect x="845" y="688" width="112" height="12"/></clipPath><clipPath id="mx-clip-830-444-112-12-0"><rect x="830" y="444" width="112" height="12"/></clipPath><clipPath id="mx-clip-830-462-112-10-0"><rect x="830" y="462" width="112" height="10"/></clipPath><clipPath id="mx-clip-1241-819-152-14-0"><rect x="1241" y="819" width="152" height="14"/></clipPath><clipPath id="mx-clip-1241-841-152-12-0"><rect x="1241" y="841" width="152" height="12"/></clipPath><clipPath id="mx-clip-761-819-92-14-0"><rect x="761" y="819" width="92" height="14"/></clipPath><clipPath id="mx-clip-761-841-92-12-0"><rect x="761" y="841" width="92" height="12"/></clipPath><clipPath id="mx-clip-881-819-92-14-0"><rect x="881" y="819" width="92" height="14"/></clipPath><clipPath id="mx-clip-881-841-92-12-0"><rect x="881" y="841" width="92" height="12"/></clipPath><clipPath id="mx-clip-1001-819-92-14-0"><rect x="1001" y="819" width="92" height="14"/></clipPath><clipPath id="mx-clip-1001-841-92-12-0"><rect x="1001" y="841" width="92" height="12"/></clipPath><clipPath id="mx-clip-1121-819-92-14-0"><rect x="1121" y="819" width="92" height="14"/></clipPath><clipPath id="mx-clip-1121-841-92-12-0"><rect x="1121" y="841" width="92" height="12"/></clipPath><clipPath id="mx-clip-1421-819-92-14-0"><rect x="1421" y="819" width="92" height="14"/></clipPath><clipPath id="mx-clip-1421-841-92-12-0"><rect x="1421" y="841" width="92" height="12"/></clipPath></defs><g transform="translate(0.5,0.5)"><path d="M 1 2 L 61 2 L 61 17 L 51 32 L 1 32 Z" fill="#d5e8d4" stroke="#82b366" stroke-miterlimit="10" pointer-events="none"/><path d="M 61 2 L 651 2 L 651 481 L 1 481 L 1 32" fill="none" stroke="#82b366" stroke-miterlimit="10" pointer-events="none"/><g fill="#000000" font-family="Helvetica" text-anchor="middle" font-size="12px"><text x="31.5" y="21.5">config</text></g><path d="M 419 162.36 L 383.14 173.35" fill="none" stroke="#000000" stroke-miterlimit="10" stroke-dasharray="3 3" pointer-events="none"/><path d="M 390.98 165.19 L 382.07 173.67 L 394.2 175.71" fill="none" stroke="#000000" stroke-miterlimit="10" pointer-events="none"/><path d="M 419 123 L 183.23 100.01" fill="none" stroke="#000000" stroke-miterlimit="10" stroke-dasharray="3 3" pointer-events="none"/><path d="M 193.59 95.5 L 182.11 99.91 L 192.53 106.45" fill="none" stroke="#000000" stroke-miterlimit="10" pointer-events="none"/><path d="M 181 206 L 210.5 189.78" fill="none" stroke="#000000" stroke-miterlimit="10" pointer-events="none"/><path d="M 220.14 184.48 L 216.88 189.96 L 210.5 189.78 L 213.76 184.29 Z" fill="#000000" stroke="#000000" stroke-miterlimit="10" pointer-events="none"/><path d="M 181.7 303 L 262.65 220.55" fill="none" stroke="#000000" stroke-miterlimit="10" pointer-events="none"/><path d="M 270.36 212.7 L 268.82 218.89 L 262.65 220.55 L 264.2 214.36 Z" fill="#000000" stroke="#000000" stroke-miterlimit="10" pointer-events="none"/><path d="M 301 308 L 301 223.99" fill="none" stroke="#000000" stroke-miterlimit="10" pointer-events="none"/><path d="M 301 212.99 L 304.24 218.49 L 301 223.99 L 297.76 218.49 Z" fill="#000000" stroke="#000000" stroke-miterlimit="10" pointer-events="none"/><path d="M 351 82 L 419 102.75" fill="none" stroke="#000000" stroke-miterlimit="10" stroke-dasharray="3 3" pointer-events="none"/><path d="M 221 56 L 337 56 L 351 70 L 351 91 L 221 91 L 221 56 Z" fill="#ffff99" stroke="#d79b00" stroke-miterlimit="10" pointer-events="none"/><path d="M 337 56 L 337 70 L 351 70" fill="none" stroke="#d79b00" stroke-miterlimit="10" pointer-events="none"/><g fill="#000000" font-family="Helvetica" font-size="12px"><text x="223.5" y="71.5">Read settings from </text><text x="223.5" y="85.5">settings.json</text></g><path d="M 691 1 L 751 1 L 751 16 L 741 31 L 691 31 Z" fill="#d5e8d4" stroke="#82b366" stroke-miterlimit="10" pointer-events="none"/><path d="M 751 1 L 951 1 L 951 180 L 691 180 L 691 31" fill="none" stroke="#82b366" stroke-miterlimit="10" pointer-events="none"/><g fill="#000000" font-family="Helvetica" text-anchor="middle" font-size="12px"><text x="721.5" y="20.5">lgu</text></g><path d="M 1301 107 L 1331 107 L 1331 161.75 L 1331 161.75 L 1331 216.5 L 1358.76 216.5" fill="none" stroke="#000000" stroke-miterlimit="10" stroke-dasharray="3 3" pointer-events="none"/><path d="M 1348.88 222 L 1359.88 216.5 L 1348.88 211" fill="none" stroke="#000000" stroke-miterlimit="10" pointer-events="none"/><path d="M 1301 107 L 1331 107 L 1331 200 L 1331 200 L 1331 293 L 1358.76 293" fill="none" stroke="#000000" stroke-miterlimit="10" stroke-dasharray="3 3" pointer-events="none"/><path d="M 1348.88 298.5 L 1359.88 293 L 1348.88 287.5" fill="none" stroke="#000000" stroke-miterlimit="10" pointer-events="none"/><path d="M 1301 107 L 1331 107 L 1331 238.75 L 1331 238.75 L 1331 370.5 L 1358.76 370.5" fill="none" stroke="#000000" stroke-miterlimit="10" stroke-dasharray="3 3" pointer-events="none"/><path d="M 1348.88 376 L 1359.88 370.5 L 1348.88 365" fill="none" stroke="#000000" stroke-miterlimit="10" pointer-events="none"/><path d="M 1206 177 L 1226.32 233.89" fill="none" stroke="#000000" stroke-miterlimit="10" pointer-events="none"/><path d="M 1217.82 226.44 L 1226.7 234.95 L 1228.18 222.74" fill="none" stroke="#000000" stroke-miterlimit="10" pointer-events="none"/><path d="M 1061 103.28 L 932.98 99.31" fill="none" stroke="#000000" stroke-miterlimit="10" pointer-events="none"/><path d="M 921.99 98.97 L 927.58 95.91 L 932.98 99.31 L 927.38 102.38 Z" fill="#000000" stroke="#000000" stroke-miterlimit="10" pointer-events="none"/><rect x="1061" y="37" width="240" height="140" fill="#ffffff" stroke="#000000" pointer-events="none"/><path d="M 1061 63 L 1061 37 L 1301 37 L 1301 63 Z" fill="#ffffff" stroke="#000000" stroke-miterlimit="10" pointer-events="none"/><g fill="#000000" font-family="Helvetica" font-weight="bold" text-anchor="middle" font-size="12px"><text x="1180.75" y="55.5">GraphBuilder</text></g><g fill="#000000" font-family="Helvetica" clip-path="url(#mx-clip-1065-68-232-44-0)" font-size="12px"><text x="1067" y="81">- graph: boost::adjacency_list&lt;&gt;</text><text x="1067" y="95">- linegraph: boost::adjacency_list&lt;&gt;</text></g><path d="M 1061 111 L 1301 111" fill="none" stroke="#000000" stroke-miterlimit="10" pointer-events="none"/><g fill="#000000" font-family="Helvetica" clip-path="url(#mx-clip-1065-120-232-62-0)" font-size="12px"><text x="1067" y="133">+ GraphBuilder(Topology, Configuration)</text><text x="1067" y="147">+ getBoostGraph(): graph</text><text x="1067" y="161">+ getBoostLineGraph(): linegraph</text></g><rect x="731" y="42" width="190" height="108" fill="#ffffff" stroke="#000000" pointer-events="none"/><path d="M 731 68 L 731 42 L 921 42 L 921 68 Z" fill="#ffffff" stroke="#000000" stroke-miterlimit="10" pointer-events="none"/><g fill="#000000" font-family="Helvetica" font-weight="bold" text-anchor="middle" font-size="12px"><text x="825.75" y="60.5">LineGraphUtility</text></g><g fill="#FFFFFF" font-family="Helvetica" clip-path="url(#mx-clip-735-73-182-14-0)" font-size="12px"><text x="737" y="86">.</text></g><path d="M 731 86 L 921 86" fill="none" stroke="#000000" stroke-miterlimit="10" pointer-events="none"/><g fill="#000000" font-family="Helvetica" clip-path="url(#mx-clip-735-95-182-60-0)" font-size="12px"><text x="737" y="108">+ getLinegraph(): Linegraph</text><text x="737" y="122">+ updateTopology()</text><text x="737" y="136">+ updateRestrictionsAndCosts()</text></g><rect x="401" y="312" width="230" height="108" fill="#ffffff" stroke="#000000" pointer-events="none"/><path d="M 401 338 L 401 312 L 631 312 L 631 338 Z" fill="#ffffff" stroke="#000000" stroke-miterlimit="10" pointer-events="none"/><g fill="#000000" font-family="Helvetica" font-weight="bold" text-anchor="middle" font-size="12px"><text x="515.75" y="330.5">CostConfig</text></g><g fill="#FFFFFF" font-family="Helvetica" clip-path="url(#mx-clip-405-343-222-14-0)" font-size="12px"><text x="407" y="356">.</text></g><path d="M 401 356 L 631 356" fill="none" stroke="#000000" stroke-miterlimit="10" pointer-events="none"/><g fill="#000000" font-family="Helvetica" clip-path="url(#mx-clip-405-365-222-60-0)" font-size="12px"><text x="407" y="378">+ defaultSpeed(HighwayType): Speed</text><text x="407" y="392">+ surfaceSpeed(SurfaceType): Speed</text><text x="407" y="406">+ otherCosts(): Cost</text></g><path d="M 459 312 L 350.14 219.75" fill="none" stroke="#000000" stroke-miterlimit="10" pointer-events="none"/><path d="M 341.75 212.64 L 348.04 213.73 L 350.14 219.75 L 343.86 218.66 Z" fill="#000000" stroke="#000000" stroke-miterlimit="10" pointer-events="none"/><rect x="221" y="308" width="160" height="141" fill="#ffffff" stroke="#000000" pointer-events="none"/><path d="M 221 334 L 221 308 L 381 308 L 381 334 Z" fill="#ffffff" stroke="#000000" stroke-miterlimit="10" pointer-events="none"/><g fill="#000000" font-family="Helvetica" font-weight="bold" text-anchor="middle" font-size="12px"><text x="300.75" y="326.5">TopologyConfig</text></g><g fill="#000000" font-family="Helvetica" clip-path="url(#mx-clip-225-339-152-94-0)" font-size="12px"><text x="227" y="352">+ topoName</text><text x="227" y="366">+ edgeTable</text><text x="227" y="380">+ edgeIdColumn</text><text x="227" y="394">+ sourceColumn</text><text x="227" y="408">+ targetColumn</text><text x="227" y="422">...</text></g><path d="M 221 432 L 381 432" fill="none" stroke="#000000" stroke-miterlimit="10" pointer-events="none"/><g fill="#FFFFFF" font-family="Helvetica" clip-path="url(#mx-clip-225-441-152-12-0)" font-size="12px"><text x="227" y="454">.</text></g><rect x="21" y="303" width="180" height="144" fill="#ffffff" stroke="#000000" pointer-events="none"/><path d="M 21 329 L 21 303 L 201 303 L 201 329 Z" fill="#ffffff" stroke="#000000" stroke-miterlimit="10" pointer-events="none"/><g fill="#000000" font-family="Helvetica" font-weight="bold" text-anchor="middle" font-size="12px"><text x="110.75" y="321.5">DatabaseConfig</text></g><g fill="#000000" font-family="Helvetica" clip-path="url(#mx-clip-25-334-172-84-0)" font-size="12px"><text x="27" y="347">+ hostname</text><text x="27" y="361">+ port</text><text x="27" y="375">+ username</text><text x="27" y="389">+ password</text><text x="27" y="403">+ database</text></g><path d="M 21 417 L 201 417" fill="none" stroke="#000000" stroke-miterlimit="10" pointer-events="none"/><g fill="#000000" font-family="Helvetica" clip-path="url(#mx-clip-25-426-172-26-0)" font-size="12px"><text x="27" y="439">+ toConnectionString(): string</text></g><rect x="21" y="147" width="160" height="135" fill="#ffffff" stroke="#000000" pointer-events="none"/><path d="M 21 173 L 21 147 L 181 147 L 181 173 Z" fill="#ffffff" stroke="#000000" stroke-miterlimit="10" pointer-events="none"/><g fill="#000000" font-family="Helvetica" font-weight="bold" text-anchor="middle" font-size="12px"><text x="100.75" y="165.5">VehicleConfig</text></g><g fill="#000000" font-family="Helvetica" clip-path="url(#mx-clip-25-178-152-84-0)" font-size="12px"><text x="27" y="191">+ category</text><text x="27" y="205">+ height: float</text><text x="27" y="219">+ length: float</text><text x="27" y="233">+ width: float</text><text x="27" y="247">+ weight: float</text></g><path d="M 21 261 L 181 261" fill="none" stroke="#000000" stroke-miterlimit="10" pointer-events="none"/><g fill="#FFFFFF" font-family="Helvetica" clip-path="url(#mx-clip-25-270-152-12-0)" font-size="12px"><text x="27" y="283">.</text></g><rect x="221" y="151" width="160" height="61" fill="#ffffff" stroke="#000000" pointer-events="none"/><path d="M 221 177 L 221 151 L 381 151 L 381 177 Z" fill="#ffffff" stroke="#000000" stroke-miterlimit="10" pointer-events="none"/><g fill="#000000" font-family="Helvetica" font-weight="bold" text-anchor="middle" font-size="12px"><text x="300.75" y="169.5">Configuration</text></g><g fill="#FFFFFF" font-family="Helvetica" clip-path="url(#mx-clip-225-182-152-14-0)" font-size="12px"><text x="227" y="195">.</text></g><path d="M 221 195 L 381 195" fill="none" stroke="#000000" stroke-miterlimit="10" pointer-events="none"/><g fill="#FFFFFF" font-family="Helvetica" clip-path="url(#mx-clip-225-204-152-12-0)" font-size="12px"><text x="227" y="217">.</text></g><rect x="21" y="53" width="160" height="78" fill="#ffffff" stroke="#000000" pointer-events="none"/><path d="M 21 79 L 21 53 L 181 53 L 181 79 Z" fill="#ffffff" stroke="#000000" stroke-miterlimit="10" pointer-events="none"/><g fill="#000000" font-family="Helvetica" font-weight="bold" text-anchor="middle" font-size="12px"><text x="100.75" y="71.5">ConfigurationException</text></g><g fill="#FFFFFF" font-family="Helvetica" clip-path="url(#mx-clip-25-84-152-14-0)" font-size="12px"><text x="27" y="97">.</text></g><path d="M 21 97 L 181 97" fill="none" stroke="#000000" stroke-miterlimit="10" pointer-events="none"/><g fill="#000000" font-family="Helvetica" clip-path="url(#mx-clip-25-106-152-26-0)" font-size="12px"><text x="27" y="119">+ what(): string</text></g><path d="M 614 121 L 719.1 108.61" fill="none" stroke="#000000" stroke-miterlimit="10" pointer-events="none"/><path d="M 730.02 107.32 L 724.94 111.18 L 719.1 108.61 L 724.18 104.75 Z" fill="#000000" stroke="#000000" stroke-miterlimit="10" pointer-events="none"/><rect x="419" y="86" width="195" height="93" fill="#ffffff" stroke="#000000" pointer-events="none"/><path d="M 419 112 L 419 86 L 614 86 L 614 112 Z" fill="#ffffff" stroke="#000000" stroke-miterlimit="10" pointer-events="none"/><g fill="#000000" font-family="Helvetica" font-weight="bold" text-anchor="middle" font-size="12px"><text x="516.25" y="104.5">ConfigurationReader</text></g><g fill="#FFFFFF" font-family="Helvetica" clip-path="url(#mx-clip-423-117-187-14-0)" font-size="12px"><text x="425" y="130">.</text></g><path d="M 419 130 L 614 130" fill="none" stroke="#000000" stroke-miterlimit="10" pointer-events="none"/><g fill="#000000" font-family="Helvetica" clip-path="url(#mx-clip-423-139-187-40-0)" font-size="12px"><text x="425" y="152">+ ConfigurationReader(fileName)</text><text x="425" y="166">+ fillConfig(): Configuration</text></g><rect x="1361" y="110" width="160" height="62" fill="#ffffff" stroke="#000000" pointer-events="none"/><path d="M 1361 136 L 1361 110 L 1521 110 L 1521 136 Z" fill="#ffffff" stroke="#000000" stroke-miterlimit="10" pointer-events="none"/><g fill="#000000" font-family="Helvetica" font-weight="bold" text-anchor="middle" font-size="12px"><text x="1440.75" y="128.5">GraphEdge</text></g><g fill="#FFFFFF" font-family="Helvetica" clip-path="url(#mx-clip-1365-141-152-14-0)" font-size="12px"><text x="1367" y="154">.</text></g><path d="M 1361 154 L 1521 154" fill="none" stroke="#000000" stroke-miterlimit="10" pointer-events="none"/><g fill="#FFFFFF" font-family="Helvetica" clip-path="url(#mx-clip-1365-163-152-12-0)" font-size="12px"><text x="1367" y="176">.</text></g><rect x="1361" y="185" width="160" height="63" fill="#ffffff" stroke="#000000" pointer-events="none"/><path d="M 1361 211 L 1361 185 L 1521 185 L 1521 211 Z" fill="#ffffff" stroke="#000000" stroke-miterlimit="10" pointer-events="none"/><g fill="#000000" font-family="Helvetica" font-weight="bold" text-anchor="middle" font-size="12px"><text x="1440.75" y="203.5">GraphVertex</text></g><g fill="#FFFFFF" font-family="Helvetica" clip-path="url(#mx-clip-1365-216-152-14-0)" font-size="12px"><text x="1367" y="229">.</text></g><path d="M 1361 229 L 1521 229" fill="none" stroke="#000000" stroke-miterlimit="10" pointer-events="none"/><g fill="#FFFFFF" font-family="Helvetica" clip-path="url(#mx-clip-1365-238-152-12-0)" font-size="12px"><text x="1367" y="251">.</text></g><rect x="1361" y="261" width="160" height="64" fill="#ffffff" stroke="#000000" pointer-events="none"/><path d="M 1361 287 L 1361 261 L 1521 261 L 1521 287 Z" fill="#ffffff" stroke="#000000" stroke-miterlimit="10" pointer-events="none"/><g fill="#000000" font-family="Helvetica" font-weight="bold" text-anchor="middle" font-size="12px"><text x="1440.75" y="279.5">LineGraphNode</text></g><g fill="#FFFFFF" font-family="Helvetica" clip-path="url(#mx-clip-1365-292-152-14-0)" font-size="12px"><text x="1367" y="305">.</text></g><path d="M 1361 305 L 1521 305" fill="none" stroke="#000000" stroke-miterlimit="10" pointer-events="none"/><g fill="#FFFFFF" font-family="Helvetica" clip-path="url(#mx-clip-1365-314-152-12-0)" font-size="12px"><text x="1367" y="327">.</text></g><rect x="1361" y="339" width="160" height="63" fill="#ffffff" stroke="#000000" pointer-events="none"/><path d="M 1361 365 L 1361 339 L 1521 339 L 1521 365 Z" fill="#ffffff" stroke="#000000" stroke-miterlimit="10" pointer-events="none"/><g fill="#000000" font-family="Helvetica" font-weight="bold" text-anchor="middle" font-size="12px"><text x="1440.75" y="357.5">LineGraphLine</text></g><g fill="#FFFFFF" font-family="Helvetica" clip-path="url(#mx-clip-1365-370-152-14-0)" font-size="12px"><text x="1367" y="383">.</text></g><path d="M 1361 383 L 1521 383" fill="none" stroke="#000000" stroke-miterlimit="10" pointer-events="none"/><g fill="#FFFFFF" font-family="Helvetica" clip-path="url(#mx-clip-1365-392-152-12-0)" font-size="12px"><text x="1367" y="405">.</text></g><path d="M 1301 107 L 1331 107 L 1331 125 L 1331 125 L 1331 143 L 1358.76 143" fill="none" stroke="#000000" stroke-miterlimit="10" stroke-dasharray="3 3" pointer-events="none"/><path d="M 1348.88 148.5 L 1359.88 143 L 1348.88 137.5" fill="none" stroke="#000000" stroke-miterlimit="10" pointer-events="none"/><path d="M 1361 35 L 1507 35 L 1521 49 L 1521 99 L 1361 99 L 1361 35 Z" fill="#ffff99" stroke="#d79b00" stroke-miterlimit="10" pointer-events="none"/><path d="M 1507 35 L 1507 49 L 1521 49" fill="none" stroke="#d79b00" stroke-miterlimit="10" pointer-events="none"/><g fill="#000000" font-family="Helvetica" font-size="12px"><text x="1363.5" y="50.5">Simple datastructures for </text><text x="1363.5" y="64.5">use in boost graph and </text><text x="1363.5" y="78.5">linegraph with bundled </text><text x="1363.5" y="92.5">properties.</text></g><path d="M 1126 217 L 1140.64 187.72" fill="none" stroke="#000000" stroke-miterlimit="10" pointer-events="none"/><path d="M 1145.56 177.88 L 1145.99 184.25 L 1140.64 187.72 L 1140.21 181.35 Z" fill="none" stroke="#000000" stroke-miterlimit="10" pointer-events="none"/><rect x="1021" y="217" width="140" height="140" fill="#ffffff" stroke="#000000" pointer-events="none"/><path d="M 1021 243 L 1021 217 L 1161 217 L 1161 243 Z" fill="#ffffff" stroke="#000000" stroke-miterlimit="10" pointer-events="none"/><g fill="#000000" font-family="Helvetica" font-weight="bold" text-anchor="middle" font-size="12px"><text x="1090.75" y="235.5">Topology</text></g><g fill="#000000" font-family="Helvetica" clip-path="url(#mx-clip-1025-248-132-44-0)" font-size="12px"><text x="1027" y="261">- mVertexMap</text><text x="1027" y="275">- mEdgeMap</text></g><path d="M 1021 291 L 1161 291" fill="none" stroke="#000000" stroke-miterlimit="10" pointer-events="none"/><g fill="#000000" font-family="Helvetica" clip-path="url(#mx-clip-1025-300-132-62-0)" font-size="12px"><text x="1027" y="313">+ addVertex(Vertex)</text><text x="1027" y="327">+ addEdge(Edge)</text><text x="1027" y="341">+ getVertex(): Vertex</text></g><rect x="1171" y="236" width="140" height="78" fill="#ffffff" stroke="#000000" pointer-events="none"/><path d="M 1171 262 L 1171 236 L 1311 236 L 1311 262 Z" fill="#ffffff" stroke="#000000" stroke-miterlimit="10" pointer-events="none"/><g fill="#000000" font-family="Helvetica" font-weight="bold" text-anchor="middle" font-size="12px"><text x="1240.75" y="254.5">TurnCostCalculator</text></g><g fill="#FFFFFF" font-family="Helvetica" clip-path="url(#mx-clip-1175-267-132-14-0)" font-size="12px"><text x="1177" y="280">.</text></g><path d="M 1171 280 L 1311 280" fill="none" stroke="#000000" stroke-miterlimit="10" pointer-events="none"/><g fill="#000000" font-family="Helvetica" clip-path="url(#mx-clip-1175-289-132-30-0)" font-size="12px"><text x="1177" y="302">+ getTurnCost()</text></g><rect x="1181" y="388" width="140" height="100" fill="#ffffff" stroke="#000000" pointer-events="none"/><path d="M 1181 414 L 1181 388 L 1321 388 L 1321 414 Z" fill="#ffffff" stroke="#000000" stroke-miterlimit="10" pointer-events="none"/><g fill="#000000" font-family="Helvetica" font-weight="bold" text-anchor="middle" font-size="12px"><text x="1250.75" y="406.5">Vertex</text></g><g fill="#000000" font-family="Helvetica" clip-path="url(#mx-clip-1185-419-132-44-0)" font-size="12px"><text x="1187" y="432">- id</text><text x="1187" y="446">- point</text></g><path d="M 1181 462 L 1321 462" fill="none" stroke="#000000" stroke-miterlimit="10" pointer-events="none"/><g fill="#000000" font-family="Helvetica" clip-path="url(#mx-clip-1185-471-132-22-0)" font-size="12px"><text x="1187" y="484">...</text></g><path d="M 1091 388 L 1091 368.99" fill="none" stroke="#000000" stroke-miterlimit="10" pointer-events="none"/><path d="M 1091 357.99 L 1094.24 363.49 L 1091 368.99 L 1087.76 363.49 Z" fill="#000000" stroke="#000000" stroke-miterlimit="10" pointer-events="none"/><rect x="1021" y="388" width="140" height="194" fill="#ffffff" stroke="#000000" pointer-events="none"/><path d="M 1021 414 L 1021 388 L 1161 388 L 1161 414 Z" fill="#ffffff" stroke="#000000" stroke-miterlimit="10" pointer-events="none"/><g fill="#000000" font-family="Helvetica" font-weight="bold" text-anchor="middle" font-size="12px"><text x="1090.75" y="406.5">Edge</text></g><g fill="#000000" font-family="Helvetica" clip-path="url(#mx-clip-1025-419-132-134-0)" font-size="12px"><text x="1027" y="432">- id</text><text x="1027" y="446">- osmId</text><text x="1027" y="460">- sourceId</text><text x="1027" y="474">- targetId</text><text x="1027" y="488">- geomData</text><text x="1027" y="502">- roadData</text><text x="1027" y="516">- restrictions</text><text x="1027" y="530">- costs</text><text x="1027" y="544">- speed</text></g><path d="M 1021 552 L 1161 552" fill="none" stroke="#000000" stroke-miterlimit="10" pointer-events="none"/><g fill="#000000" font-family="Helvetica" clip-path="url(#mx-clip-1025-561-132-22-0)" font-size="12px"><text x="1027" y="574">...</text></g><path d="M 1102.39 622 L 1100.05 593.95" fill="none" stroke="#000000" stroke-miterlimit="10" pointer-events="none"/><path d="M 1099.14 582.98 L 1102.82 588.2 L 1100.05 593.95 L 1096.37 588.73 Z" fill="#000000" stroke="#000000" stroke-miterlimit="10" pointer-events="none"/><rect x="1021" y="622" width="170" height="87" fill="#ffffff" stroke="#000000" pointer-events="none"/><path d="M 1021 648 L 1021 622 L 1191 622 L 1191 648 Z" fill="#ffffff" stroke="#000000" stroke-miterlimit="10" pointer-events="none"/><g fill="#000000" font-family="Helvetica" font-weight="bold" text-anchor="middle" font-size="12px"><text x="1105.75" y="640.5">EdgeCost</text></g><g fill="#FFFFFF" font-family="Helvetica" clip-path="url(#mx-clip-1025-653-162-14-0)" font-size="12px"><text x="1027" y="666">.</text></g><path d="M 1021 666 L 1191 666" fill="none" stroke="#000000" stroke-miterlimit="10" pointer-events="none"/><g fill="#000000" font-family="Helvetica" clip-path="url(#mx-clip-1025-675-162-30-0)" font-size="12px"><text x="1027" y="688">+ getCost(): Cost</text><text x="1027" y="702">+ addCost(CostType, Cost)</text></g><path d="M 1211 595.53 L 1169.82 557.59" fill="none" stroke="#000000" stroke-miterlimit="10" pointer-events="none"/><path d="M 1161.73 550.14 L 1167.96 551.49 L 1169.82 557.59 L 1163.58 556.25 Z" fill="none" stroke="#000000" stroke-miterlimit="10" pointer-events="none"/><rect x="1211" y="590" width="140" height="140" fill="#ffffff" stroke="#000000" pointer-events="none"/><path d="M 1211 616 L 1211 590 L 1351 590 L 1351 616 Z" fill="#ffffff" stroke="#000000" stroke-miterlimit="10" pointer-events="none"/><g fill="#000000" font-family="Helvetica" font-weight="bold" text-anchor="middle" font-size="12px"><text x="1280.75" y="608.5">EdgeRestriction</text></g><g fill="#000000" font-family="Helvetica" clip-path="url(#mx-clip-1215-621-132-84-0)" font-size="12px"><text x="1217" y="634">- vehicleProperties</text><text x="1217" y="648">- generalAccess</text><text x="1217" y="662">- vehicleTypeAccess</text><text x="1217" y="676">- barrier</text><text x="1217" y="690">- turningRestriction</text></g><path d="M 1211 704 L 1351 704" fill="none" stroke="#000000" stroke-miterlimit="10" pointer-events="none"/><g fill="#000000" font-family="Helvetica" clip-path="url(#mx-clip-1215-713-132-22-0)" font-size="12px"><text x="1217" y="726">...</text></g><path d="M 1198.02 388 L 1169.72 361.29" fill="none" stroke="#000000" stroke-miterlimit="10" pointer-events="none"/><path d="M 1161.72 353.74 L 1167.94 355.16 L 1169.72 361.29 L 1163.5 359.87 Z" fill="#000000" stroke="#000000" stroke-miterlimit="10" pointer-events="none"/><path d="M 1141.51 750 L 1134.99 767.9" fill="none" stroke="#000000" stroke-miterlimit="10" stroke-dasharray="3 3" pointer-events="none"/><path d="M 1133.2 756.73 L 1134.61 768.95 L 1143.54 760.5" fill="none" stroke="#000000" stroke-miterlimit="10" pointer-events="none"/><path d="M 1008 1 L 1068 1 L 1068 16 L 1058 31 L 1008 31 Z" fill="#d5e8d4" stroke="#82b366" stroke-miterlimit="10" pointer-events="none"/><path d="M 1068 1 L 1548 1 L 1548 750 L 1008 750 L 1008 31" fill="none" stroke="#82b366" stroke-miterlimit="10" pointer-events="none"/><g fill="#000000" font-family="Helvetica" text-anchor="middle" font-size="12px"><text x="1038.5" y="20.5">frame</text></g><rect x="1361" y="423" width="160" height="112" fill="#ffffff" stroke="#000000" pointer-events="none"/><path d="M 1361 449 L 1361 423 L 1521 423 L 1521 449 Z" fill="#ffffff" stroke="#000000" stroke-miterlimit="10" pointer-events="none"/><g fill="#000000" font-family="Helvetica" font-weight="bold" text-anchor="middle" font-size="12px"><text x="1440.75" y="441.5">GeomData</text></g><g fill="#000000" font-family="Helvetica" clip-path="url(#mx-clip-1365-454-152-64-0)" font-size="12px"><text x="1367" y="467">+ length</text><text x="1367" y="481">+ centerPoint</text><text x="1367" y="495">+ sourceBearing</text><text x="1367" y="509">+ targetBearing</text></g><path d="M 1361 517 L 1521 517" fill="none" stroke="#000000" stroke-miterlimit="10" pointer-events="none"/><g fill="#FFFFFF" font-family="Helvetica" clip-path="url(#mx-clip-1365-526-152-12-0)" font-size="12px"><text x="1367" y="539">.</text></g><path d="M 1361 581.43 L 1172.46 523.52" fill="none" stroke="#000000" stroke-miterlimit="10" pointer-events="none"/><path d="M 1161.94 520.29 L 1168.15 518.81 L 1172.46 523.52 L 1166.25 525 Z" fill="#000000" stroke="#000000" stroke-miterlimit="10" pointer-events="none"/><rect x="1361" y="552" width="160" height="108" fill="#ffffff" stroke="#000000" pointer-events="none"/><path d="M 1361 578 L 1361 552 L 1521 552 L 1521 578 Z" fill="#ffffff" stroke="#000000" stroke-miterlimit="10" pointer-events="none"/><g fill="#000000" font-family="Helvetica" font-weight="bold" text-anchor="middle" font-size="12px"><text x="1440.75" y="570.5">RoadData</text></g><g fill="#000000" font-family="Helvetica" clip-path="url(#mx-clip-1365-583-152-54-0)" font-size="12px"><text x="1367" y="596">+ direction</text><text x="1367" y="610">+ nrLanes</text><text x="1367" y="624">+ highwayType</text></g><path d="M 1361 636 L 1521 636" fill="none" stroke="#000000" stroke-miterlimit="10" pointer-events="none"/><g fill="#FFFFFF" font-family="Helvetica" clip-path="url(#mx-clip-1365-645-152-12-0)" font-size="12px"><text x="1367" y="658">.</text></g><path d="M 1361 500 L 1172.97 509.4" fill="none" stroke="#000000" stroke-miterlimit="10" pointer-events="none"/><path d="M 1161.98 509.95 L 1167.32 506.44 L 1172.97 509.4 L 1167.64 512.91 Z" fill="#000000" stroke="#000000" stroke-miterlimit="10" pointer-events="none"/><path d="M 829.66 239 L 827.69 161.98" fill="none" stroke="#000000" stroke-miterlimit="10" pointer-events="none"/><path d="M 827.41 150.99 L 830.78 156.4 L 827.69 161.98 L 824.31 156.57 Z" fill="#000000" stroke="#000000" stroke-miterlimit="10" pointer-events="none"/><rect x="731" y="239" width="200" height="105" fill="#ffffff" stroke="#000000" pointer-events="none"/><path d="M 731 265 L 731 239 L 931 239 L 931 265 Z" fill="#ffffff" stroke="#000000" stroke-miterlimit="10" pointer-events="none"/><g fill="#000000" font-family="Helvetica" font-weight="bold" font-style="italic" text-anchor="middle" font-size="12px"><text x="830.75" y="257.5">MapProvider</text></g><g fill="#FFFFFF" font-family="Helvetica" clip-path="url(#mx-clip-735-270-192-14-0)" font-size="12px"><text x="737" y="283">.</text></g><path d="M 731 283 L 931 283" fill="none" stroke="#000000" stroke-miterlimit="10" pointer-events="none"/><g fill="#000000" font-family="Helvetica" font-style="italic" clip-path="url(#mx-clip-735-292-192-42-0)" font-size="12px"><text x="737" y="305">+ MapProvider(Configuration)</text><text x="737" y="319">+ getTopology(): Topology</text><text x="737" y="333">+ setRestrictiosAndCosts()</text></g><path d="M 764.45 553 L 780.04 356.08" fill="none" stroke="#000000" stroke-miterlimit="10" stroke-dasharray="3 3" pointer-events="none"/><path d="M 780.91 345.11 L 785.53 356.51 L 774.56 355.65 Z" fill="none" stroke="#000000" stroke-miterlimit="10" pointer-events="none"/><path d="M 681 203 L 761 203 L 761 215 L 751 230 L 681 230 Z" fill="#d5e8d4" stroke="#82b366" stroke-miterlimit="10" pointer-events="none"/><path d="M 761 203 L 981 203 L 981 750 L 681 750 L 681 230" fill="none" stroke="#82b366" stroke-miterlimit="10" pointer-events="none"/><g fill="#000000" font-family="Helvetica" text-anchor="middle" font-size="12px"><text x="721.5" y="221">mapprovider</text></g><path d="M 884.59 412.78 L 881.63 356.1" fill="none" stroke="#000000" stroke-miterlimit="10" stroke-dasharray="3 3" pointer-events="none"/><path d="M 881.06 345.12 L 887.12 355.82 L 876.14 356.39 Z" fill="none" stroke="#000000" stroke-miterlimit="10" pointer-events="none"/><rect x="431" y="561" width="190" height="78" fill="#ffffff" stroke="#000000" pointer-events="none"/><path d="M 431 587 L 431 561 L 621 561 L 621 587 Z" fill="#ffffff" stroke="#000000" stroke-miterlimit="10" pointer-events="none"/><g fill="#000000" font-family="Helvetica" font-weight="bold" text-anchor="middle" font-size="12px"><text x="525.75" y="579.5">TimeToStringMaker</text></g><g fill="#FFFFFF" font-family="Helvetica" clip-path="url(#mx-clip-435-592-182-14-0)" font-size="12px"><text x="437" y="605">.</text></g><path d="M 431 605 L 621 605" fill="none" stroke="#000000" stroke-miterlimit="10" pointer-events="none"/><g fill="#000000" font-family="Helvetica" clip-path="url(#mx-clip-435-614-182-30-0)" font-size="12px"><text x="437" y="627">+ getEpochMsTimeString(): string</text></g><path d="M 401 527 L 461 527 L 461 542 L 451 557 L 401 557 Z" fill="#d5e8d4" stroke="#82b366" stroke-miterlimit="10" pointer-events="none"/><path d="M 461 527 L 651 527 L 651 750 L 401 750 L 401 557" fill="none" stroke="#82b366" stroke-miterlimit="10" pointer-events="none"/><g fill="#000000" font-family="Helvetica" text-anchor="middle" font-size="12px"><text x="431.5" y="546.5">util</text></g><rect x="431" y="655" width="90" height="78" fill="#ffffff" stroke="#000000" pointer-events="none"/><path d="M 431 681 L 431 655 L 521 655 L 521 681 Z" fill="#ffffff" stroke="#000000" stroke-miterlimit="10" pointer-events="none"/><g fill="#000000" font-family="Helvetica" font-weight="bold" text-anchor="middle" font-size="12px"><text x="475.75" y="673.5">Logging</text></g><g fill="#FFFFFF" font-family="Helvetica" clip-path="url(#mx-clip-435-686-82-14-0)" font-size="12px"><text x="437" y="699">.</text></g><path d="M 431 699 L 521 699" fill="none" stroke="#000000" stroke-miterlimit="10" pointer-events="none"/><g fill="#000000" font-family="Helvetica" clip-path="url(#mx-clip-435-708-82-30-0)" font-size="12px"><text x="437" y="721">+ initLogging()</text></g><rect x="561" y="655" width="60" height="80" fill="#ffffff" stroke="#000000" pointer-events="none"/><path d="M 561 681 L 561 655 L 621 655 L 621 681 Z" fill="#ffffff" stroke="#000000" stroke-miterlimit="10" pointer-events="none"/><g fill="#000000" font-family="Helvetica" font-weight="bold" text-anchor="middle" font-size="12px"><text x="590.75" y="673.5">Point</text></g><g fill="#000000" font-family="Helvetica" clip-path="url(#mx-clip-565-686-52-34-0)" font-size="12px"><text x="567" y="699">+ x</text><text x="567" y="713">+ y</text></g><path d="M 561 719 L 621 719" fill="none" stroke="#000000" stroke-miterlimit="10" pointer-events="none"/><g fill="#FFFFFF" font-family="Helvetica" clip-path="url(#mx-clip-565-728-52-12-0)" font-size="12px"><text x="567" y="741">.</text></g><path d="M 702 588.07 L 623.23 593.41" fill="none" stroke="#000000" stroke-miterlimit="10" pointer-events="none"/><path d="M 632.72 587.25 L 622.12 593.48 L 633.46 598.23" fill="none" stroke="#000000" stroke-miterlimit="10" pointer-events="none"/><rect x="702" y="553" width="120" height="62" fill="#ffffff" stroke="#000000" pointer-events="none"/><path d="M 702 579 L 702 553 L 822 553 L 822 579 Z" fill="#ffffff" stroke="#000000" stroke-miterlimit="10" pointer-events="none"/><g fill="#000000" font-family="Helvetica" font-weight="bold" text-anchor="middle" font-size="12px"><text x="761.75" y="571.5">PostGisProvider</text></g><g fill="#FFFFFF" font-family="Helvetica" clip-path="url(#mx-clip-706-584-112-14-0)" font-size="12px"><text x="708" y="597">.</text></g><path d="M 702 597 L 822 597" fill="none" stroke="#000000" stroke-miterlimit="10" pointer-events="none"/><g fill="#FFFFFF" font-family="Helvetica" clip-path="url(#mx-clip-706-606-112-12-0)" font-size="12px"><text x="708" y="619">.</text></g><rect x="711" y="635" width="90" height="62" fill="#ffffff" stroke="#000000" pointer-events="none"/><path d="M 711 661 L 711 635 L 801 635 L 801 661 Z" fill="#ffffff" stroke="#000000" stroke-miterlimit="10" pointer-events="none"/><g fill="#000000" font-family="Helvetica" font-weight="bold" text-anchor="middle" font-size="12px"><text x="755.75" y="653.5">CostQueries</text></g><g fill="#FFFFFF" font-family="Helvetica" clip-path="url(#mx-clip-715-666-82-14-0)" font-size="12px"><text x="717" y="679">.</text></g><path d="M 711 679 L 801 679" fill="none" stroke="#000000" stroke-miterlimit="10" pointer-events="none"/><g fill="#FFFFFF" font-family="Helvetica" clip-path="url(#mx-clip-715-688-82-12-0)" font-size="12px"><text x="717" y="701">.</text></g><path d="M 759.73 615 L 758.43 632.77" fill="none" stroke="#000000" stroke-miterlimit="10" pointer-events="none"/><path d="M 753.67 622.51 L 758.35 633.88 L 764.64 623.32" fill="none" stroke="#000000" stroke-miterlimit="10" pointer-events="none"/><rect x="841" y="552" width="120" height="62" fill="#ffffff" stroke="#000000" pointer-events="none"/><path d="M 841 578 L 841 552 L 961 552 L 961 578 Z" fill="#ffffff" stroke="#000000" stroke-miterlimit="10" pointer-events="none"/><g fill="#000000" font-family="Helvetica" font-weight="bold" text-anchor="middle" font-size="12px"><text x="900.75" y="570.5">TopologyQueries</text></g><g fill="#FFFFFF" font-family="Helvetica" clip-path="url(#mx-clip-845-583-112-14-0)" font-size="12px"><text x="847" y="596">.</text></g><path d="M 841 596 L 961 596" fill="none" stroke="#000000" stroke-miterlimit="10" pointer-events="none"/><g fill="#FFFFFF" font-family="Helvetica" clip-path="url(#mx-clip-845-605-112-12-0)" font-size="12px"><text x="847" y="618">.</text></g><path d="M 822 583.57 L 838.76 583.45" fill="none" stroke="#000000" stroke-miterlimit="10" pointer-events="none"/><path d="M 828.92 589.02 L 839.88 583.44 L 828.84 578.02" fill="none" stroke="#000000" stroke-miterlimit="10" pointer-events="none"/><rect x="841" y="635" width="120" height="62" fill="#ffffff" stroke="#000000" pointer-events="none"/><path d="M 841 661 L 841 635 L 961 635 L 961 661 Z" fill="#ffffff" stroke="#000000" stroke-miterlimit="10" pointer-events="none"/><g fill="#000000" font-family="Helvetica" font-weight="bold" text-anchor="middle" font-size="12px"><text x="900.75" y="653.5">RestrictionQueries</text></g><g fill="#FFFFFF" font-family="Helvetica" clip-path="url(#mx-clip-845-666-112-14-0)" font-size="12px"><text x="847" y="679">.</text></g><path d="M 841 679 L 961 679" fill="none" stroke="#000000" stroke-miterlimit="10" pointer-events="none"/><g fill="#FFFFFF" font-family="Helvetica" clip-path="url(#mx-clip-845-688-112-12-0)" font-size="12px"><text x="847" y="701">.</text></g><path d="M 798.55 615 L 839.29 649.55" fill="none" stroke="#000000" stroke-miterlimit="10" pointer-events="none"/><path d="M 828.2 647.36 L 840.15 650.28 L 835.32 638.97" fill="none" stroke="#000000" stroke-miterlimit="10" pointer-events="none"/><path d="M 691 512 L 751 512 L 751 527 L 741 542 L 691 542 Z" fill="#fff2cc" stroke="#d6b656" stroke-miterlimit="10" pointer-events="none"/><path d="M 751 512 L 971 512 L 971 710 L 691 710 L 691 542" fill="none" stroke="#d6b656" stroke-miterlimit="10" pointer-events="none"/><g fill="#000000" font-family="Helvetica" text-anchor="middle" font-size="12px"><text x="721.5" y="531.5">postgis</text></g><rect x="826" y="412.78" width="120" height="54.16" fill="#ffffff" stroke="#000000" pointer-events="none"/><path d="M 826 438.78 L 826 412.78 L 946 412.78 L 946 438.78 Z" fill="#ffffff" stroke="#000000" stroke-miterlimit="10" pointer-events="none"/><g fill="#000000" font-family="Helvetica" font-weight="bold" text-anchor="middle" font-size="12px"><text x="885.75" y="431.28">JsonTestProvider</text></g><g fill="#FFFFFF" font-family="Helvetica" clip-path="url(#mx-clip-830-444-112-12-0)" font-size="12px"><text x="832" y="456.78">.</text></g><path d="M 826 453.69 L 946 453.69" fill="none" stroke="#000000" stroke-miterlimit="10" pointer-events="none"/><g fill="#FFFFFF" font-family="Helvetica" clip-path="url(#mx-clip-830-462-112-10-0)" font-size="12px"><text x="832" y="475">.</text></g><path d="M 811 374 L 871 374 L 871 389 L 861 404 L 811 404 Z" fill="#fff2cc" stroke="#d6b656" stroke-miterlimit="10" pointer-events="none"/><path d="M 871 374 L 961 374 L 961 480 L 811 480 L 811 404" fill="none" stroke="#d6b656" stroke-miterlimit="10" pointer-events="none"/><g fill="#000000" font-family="Helvetica" text-anchor="middle" font-size="12px"><text x="841.5" y="393.5">jsontest</text></g><rect x="1237" y="788" width="160" height="64" fill="#ffffff" stroke="#000000" pointer-events="none"/><path d="M 1237 814 L 1237 788 L 1397 788 L 1397 814 Z" fill="#ffffff" stroke="#000000" stroke-miterlimit="10" pointer-events="none"/><g fill="#000000" font-family="Helvetica" font-weight="bold" text-anchor="middle" font-size="12px"><text x="1316.75" y="806.5">OsmTurningRestriction</text></g><g fill="#FFFFFF" font-family="Helvetica" clip-path="url(#mx-clip-1241-819-152-14-0)" font-size="12px"><text x="1243" y="832">.</text></g><path d="M 1237 832 L 1397 832" fill="none" stroke="#000000" stroke-miterlimit="10" pointer-events="none"/><g fill="#FFFFFF" font-family="Helvetica" clip-path="url(#mx-clip-1241-841-152-12-0)" font-size="12px"><text x="1243" y="854">.</text></g><rect x="757" y="788" width="100" height="64" fill="#ffffff" stroke="#000000" pointer-events="none"/><path d="M 757 814 L 757 788 L 857 788 L 857 814 Z" fill="#ffffff" stroke="#000000" stroke-miterlimit="10" pointer-events="none"/><g fill="#000000" font-family="Helvetica" font-weight="bold" text-anchor="middle" font-size="12px"><text x="806.75" y="806.5">OsmAccess</text></g><g fill="#FFFFFF" font-family="Helvetica" clip-path="url(#mx-clip-761-819-92-14-0)" font-size="12px"><text x="763" y="832">.</text></g><path d="M 757 832 L 857 832" fill="none" stroke="#000000" stroke-miterlimit="10" pointer-events="none"/><g fill="#FFFFFF" font-family="Helvetica" clip-path="url(#mx-clip-761-841-92-12-0)" font-size="12px"><text x="763" y="854">.</text></g><rect x="877" y="788" width="100" height="64" fill="#ffffff" stroke="#000000" pointer-events="none"/><path d="M 877 814 L 877 788 L 977 788 L 977 814 Z" fill="#ffffff" stroke="#000000" stroke-miterlimit="10" pointer-events="none"/><g fill="#000000" font-family="Helvetica" font-weight="bold" text-anchor="middle" font-size="12px"><text x="926.75" y="806.5">OsmBarrier</text></g><g fill="#FFFFFF" font-family="Helvetica" clip-path="url(#mx-clip-881-819-92-14-0)" font-size="12px"><text x="883" y="832">.</text></g><path d="M 877 832 L 977 832" fill="none" stroke="#000000" stroke-miterlimit="10" pointer-events="none"/><g fill="#FFFFFF" font-family="Helvetica" clip-path="url(#mx-clip-881-841-92-12-0)" font-size="12px"><text x="883" y="854">.</text></g><rect x="997" y="788" width="100" height="64" fill="#ffffff" stroke="#000000" pointer-events="none"/><path d="M 997 814 L 997 788 L 1097 788 L 1097 814 Z" fill="#ffffff" stroke="#000000" stroke-miterlimit="10" pointer-events="none"/><g fill="#000000" font-family="Helvetica" font-weight="bold" text-anchor="middle" font-size="12px"><text x="1046.75" y="806.5">OsmHighway</text></g><g fill="#FFFFFF" font-family="Helvetica" clip-path="url(#mx-clip-1001-819-92-14-0)" font-size="12px"><text x="1003" y="832">.</text></g><path d="M 997 832 L 1097 832" fill="none" stroke="#000000" stroke-miterlimit="10" pointer-events="none"/><g fill="#FFFFFF" font-family="Helvetica" clip-path="url(#mx-clip-1001-841-92-12-0)" font-size="12px"><text x="1003" y="854">.</text></g><rect x="1117" y="788" width="100" height="64" fill="#ffffff" stroke="#000000" pointer-events="none"/><path d="M 1117 814 L 1117 788 L 1217 788 L 1217 814 Z" fill="#ffffff" stroke="#000000" stroke-miterlimit="10" pointer-events="none"/><g fill="#000000" font-family="Helvetica" font-weight="bold" text-anchor="middle" font-size="12px"><text x="1166.75" y="806.5">OsmId</text></g><g fill="#FFFFFF" font-family="Helvetica" clip-path="url(#mx-clip-1121-819-92-14-0)" font-size="12px"><text x="1123" y="832">.</text></g><path d="M 1117 832 L 1217 832" fill="none" stroke="#000000" stroke-miterlimit="10" pointer-events="none"/><g fill="#FFFFFF" font-family="Helvetica" clip-path="url(#mx-clip-1121-841-92-12-0)" font-size="12px"><text x="1123" y="854">.</text></g><rect x="1417" y="788" width="100" height="64" fill="#ffffff" stroke="#000000" pointer-events="none"/><path d="M 1417 814 L 1417 788 L 1517 788 L 1517 814 Z" fill="#ffffff" stroke="#000000" stroke-miterlimit="10" pointer-events="none"/><g fill="#000000" font-family="Helvetica" font-weight="bold" text-anchor="middle" font-size="12px"><text x="1466.75" y="806.5">OsmVehicle</text></g><g fill="#FFFFFF" font-family="Helvetica" clip-path="url(#mx-clip-1421-819-92-14-0)" font-size="12px"><text x="1423" y="832">.</text></g><path d="M 1417 832 L 1517 832" fill="none" stroke="#000000" stroke-miterlimit="10" pointer-events="none"/><g fill="#FFFFFF" font-family="Helvetica" clip-path="url(#mx-clip-1421-841-92-12-0)" font-size="12px"><text x="1423" y="854">.</text></g><path d="M 681 770 L 741 770 L 741 785 L 731 800 L 681 800 Z" fill="#d5e8d4" stroke="#82b366" stroke-miterlimit="10" pointer-events="none"/><path d="M 741 770 L 1551 770 L 1551 870 L 681 870 L 681 800" fill="none" stroke="#82b366" stroke-miterlimit="10" pointer-events="none"/><g fill="#000000" font-family="Helvetica" text-anchor="middle" font-size="12px"><text x="711.5" y="789.5">osm</text></g></g></svg>