<?xml version="1.0" encoding="UTF-8"?>
<!DOCTYPE svg PUBLIC "-//W3C//DTD SVG 1.1//EN" "http://www.w3.org/Graphics/SVG/1.1/DTD/svg11.dtd">
<svg xmlns="http://www.w3.org/2000/svg" style="background-color: rgb(255, 255, 255);" xmlns:xlink="http://www.w3.org/1999/xlink" width="1073px" height="883px" version="1.1"><defs/><g transform="translate(0.5,0.5)"><rect x="31" y="51" width="100" height="40" fill="#ffffff" stroke="#000000" pointer-events="none"/><path d="M 81 91 L 81 861" fill="none" stroke="#000000" stroke-miterlimit="10" stroke-dasharray="3 3" pointer-events="none"/><g fill="#000000" font-family="Helvetica" text-anchor="middle" font-size="12px"><text x="80.75" y="75.5">Environment</text></g><rect x="76" y="121" width="10" height="590" fill="#ffffff" stroke="#000000" pointer-events="none"/><rect x="76" y="761" width="10" height="80" fill="#ffffff" stroke="#000000" pointer-events="none"/><rect x="191" y="51" width="110" height="40" fill="#ffffff" stroke="#000000" pointer-events="none"/><path d="M 246 91 L 246 861" fill="none" stroke="#000000" stroke-miterlimit="10" stroke-dasharray="3 3" pointer-events="none"/><g fill="#000000" font-family="Helvetica" text-anchor="middle" font-size="12px"><text x="245.75" y="75.5">:LineGraphUtility</text></g><rect x="241" y="131" width="10" height="570" fill="#ffffff" stroke="#000000" pointer-events="none"/><rect x="241" y="771" width="10" height="60" fill="#ffffff" stroke="#000000" pointer-events="none"/><rect x="361" y="51" width="100" height="40" fill="#ffffff" stroke="#000000" pointer-events="none"/><path d="M 411 91 L 411 861" fill="none" stroke="#000000" stroke-miterlimit="10" stroke-dasharray="3 3" pointer-events="none"/><g fill="#000000" font-family="Helvetica" text-anchor="middle" font-size="12px"><text x="410.75" y="75.5">:Topology</text></g><rect x="406" y="141" width="10" height="30" fill="#ffffff" stroke="#000000" pointer-events="none"/><rect x="531" y="51" width="100" height="40" fill="#ffffff" stroke="#000000" pointer-events="none"/><path d="M 581 91 L 581 861" fill="none" stroke="#000000" stroke-miterlimit="10" stroke-dasharray="3 3" pointer-events="none"/><g fill="#000000" font-family="Helvetica" text-anchor="middle" font-size="12px"><text x="580.75" y="75.5">:MapProvider</text></g><rect x="576" y="211" width="10" height="190" fill="#ffffff" stroke="#000000" pointer-events="none"/><rect x="576" y="451" width="10" height="50" fill="#ffffff" stroke="#000000" pointer-events="none"/><rect x="741" y="51" width="110" height="40" fill="#ffffff" stroke="#000000" pointer-events="none"/><path d="M 796 91 L 796 861" fill="none" stroke="#000000" stroke-miterlimit="10" stroke-dasharray="3 3" pointer-events="none"/><g fill="#000000" font-family="Helvetica" text-anchor="middle" font-size="12px"><text x="795.75" y="75.5">:PostGisProvider</text></g><rect x="791" y="221" width="10" height="30" fill="#ffffff" stroke="#000000" pointer-events="none"/><rect x="791" y="291" width="10" height="30" fill="#ffffff" stroke="#000000" pointer-events="none"/><rect x="791" y="361" width="10" height="30" fill="#ffffff" stroke="#000000" pointer-events="none"/><rect x="791" y="461" width="10" height="30" fill="#ffffff" stroke="#000000" pointer-events="none"/><rect x="891" y="51" width="100" height="40" fill="#ffffff" stroke="#000000" pointer-events="none"/><path d="M 941 91 L 941 861" fill="none" stroke="#000000" stroke-miterlimit="10" stroke-dasharray="3 3" pointer-events="none"/><g fill="#000000" font-family="Helvetica" text-anchor="middle" font-size="12px"><text x="940.75" y="75.5">:GraphBuilder</text></g><rect x="936" y="551" width="10" height="120" fill="#ffffff" stroke="#000000" pointer-events="none"/><rect x="946" y="581" width="10" height="20" fill="#ffffff" stroke="#000000" pointer-events="none"/><path d="M 951 561 L 976 561 L 976 581 L 964.12 581" fill="none" stroke="#000000" stroke-miterlimit="10" stroke-dasharray="3 3" pointer-events="none"/><path d="M 957.12 581 L 964.12 577.5 L 964.12 584.5 Z" fill="#000000" stroke="#000000" stroke-miterlimit="10" pointer-events="none"/><g fill="#000000" font-family="Helvetica" font-size="11px"><rect fill="#ffffff" stroke="none" x="980" y="563" width="63" height="14" stroke-width="0"/><text x="980" y="572.5">buildGraph()</text></g><rect x="946" y="641" width="10" height="20" fill="#ffffff" stroke="#000000" pointer-events="none"/><path d="M 951 621 L 976 621 L 976 641 L 964.12 641" fill="none" stroke="#000000" stroke-miterlimit="10" stroke-dasharray="3 3" pointer-events="none"/><path d="M 957.12 641 L 964.12 637.5 L 964.12 644.5 Z" fill="#000000" stroke="#000000" stroke-miterlimit="10" pointer-events="none"/><g fill="#000000" font-family="Helvetica" font-size="11px"><rect fill="#ffffff" stroke="none" x="980" y="623" width="83" height="14" stroke-width="0"/><text x="980" y="632.5">buildLineGraph()</text></g><rect x="936" y="781" width="10" height="30" fill="#ffffff" stroke="#000000" pointer-events="none"/><path d="M 86 131 L 232.88 131" fill="none" stroke="#000000" stroke-miterlimit="10" stroke-dasharray="3 3" pointer-events="none"/><path d="M 239.88 131 L 232.88 134.5 L 232.88 127.5 Z" fill="#000000" stroke="#000000" stroke-miterlimit="10" pointer-events="none"/><g fill="#000000" font-family="Helvetica" text-anchor="middle" font-size="11px"><rect fill="#ffffff" stroke="none" x="121" y="116" width="88" height="14" stroke-width="0"/><text x="164" y="125">updateTopology()</text></g><path d="M 251 141 L 397.88 141" fill="none" stroke="#000000" stroke-miterlimit="10" stroke-dasharray="3 3" pointer-events="none"/><path d="M 404.88 141 L 397.88 144.5 L 397.88 137.5 Z" fill="#000000" stroke="#000000" stroke-miterlimit="10" pointer-events="none"/><g fill="#000000" font-family="Helvetica" text-anchor="middle" font-size="11px"><rect fill="#ffffff" stroke="none" x="290" y="126" width="79" height="14" stroke-width="0"/><text x="329" y="135">clearTopology()</text></g><path d="M 406 170 L 253.24 170" fill="none" stroke="#000000" stroke-miterlimit="10" stroke-dasharray="3 3" pointer-events="none"/><path d="M 261.12 165.5 L 252.12 170 L 261.12 174.5" fill="none" stroke="#000000" stroke-miterlimit="10" pointer-events="none"/><path d="M 251 211 L 567.88 211" fill="none" stroke="#000000" stroke-miterlimit="10" stroke-dasharray="3 3" pointer-events="none"/><path d="M 574.88 211 L 567.88 214.5 L 567.88 207.5 Z" fill="#000000" stroke="#000000" stroke-miterlimit="10" pointer-events="none"/><g fill="#000000" font-family="Helvetica" text-anchor="middle" font-size="11px"><rect fill="#ffffff" stroke="none" x="380" y="196" width="70" height="14" stroke-width="0"/><text x="414" y="205">getTopology()</text></g><path d="M 586 221 L 782.88 221" fill="none" stroke="#000000" stroke-miterlimit="10" stroke-dasharray="3 3" pointer-events="none"/><path d="M 789.88 221 L 782.88 224.5 L 782.88 217.5 Z" fill="#000000" stroke="#000000" stroke-miterlimit="10" pointer-events="none"/><g fill="#000000" font-family="Helvetica" text-anchor="middle" font-size="11px"><rect fill="#ffffff" stroke="none" x="651" y="206" width="77" height="14" stroke-width="0"/><text x="689" y="215">buildTopology()</text></g><path d="M 791 250 L 588.24 250" fill="none" stroke="#000000" stroke-miterlimit="10" stroke-dasharray="3 3" pointer-events="none"/><path d="M 596.12 245.5 L 587.12 250 L 596.12 254.5" fill="none" stroke="#000000" stroke-miterlimit="10" pointer-events="none"/><path d="M 586 291 L 782.88 291" fill="none" stroke="#000000" stroke-miterlimit="10" stroke-dasharray="3 3" pointer-events="none"/><path d="M 789.88 291 L 782.88 294.5 L 782.88 287.5 Z" fill="#000000" stroke="#000000" stroke-miterlimit="10" pointer-events="none"/><g fill="#000000" font-family="Helvetica" text-anchor="middle" font-size="11px"><rect fill="#ffffff" stroke="none" x="635" y="276" width="110" height="14" stroke-width="0"/><text x="689" y="285">getTopologyVertices()</text></g><path d="M 791 320 L 588.24 320" fill="none" stroke="#000000" stroke-miterlimit="10" stroke-dasharray="3 3" pointer-events="none"/><path d="M 596.12 315.5 L 587.12 320 L 596.12 324.5" fill="none" stroke="#000000" stroke-miterlimit="10" pointer-events="none"/><g fill="#000000" font-family="Helvetica" text-anchor="middle" font-size="11px"><rect fill="#ffffff" stroke="none" x="609" y="305" width="42" height="14" stroke-width="0"/><text x="629" y="314">Vertices</text></g><path d="M 586 361 L 782.88 361" fill="none" stroke="#000000" stroke-miterlimit="10" stroke-dasharray="3 3" pointer-events="none"/><path d="M 789.88 361 L 782.88 364.5 L 782.88 357.5 Z" fill="#000000" stroke="#000000" stroke-miterlimit="10" pointer-events="none"/><g fill="#000000" font-family="Helvetica" text-anchor="middle" font-size="11px"><rect fill="#ffffff" stroke="none" x="639" y="346" width="101" height="14" stroke-width="0"/><text x="689" y="355">getTopologyEdges()</text></g><path d="M 791 390 L 588.24 390" fill="none" stroke="#000000" stroke-miterlimit="10" stroke-dasharray="3 3" pointer-events="none"/><path d="M 596.12 385.5 L 587.12 390 L 596.12 394.5" fill="none" stroke="#000000" stroke-miterlimit="10" pointer-events="none"/><g fill="#000000" font-family="Helvetica" text-anchor="middle" font-size="11px"><rect fill="#ffffff" stroke="none" x="613" y="375" width="33" height="14" stroke-width="0"/><text x="629" y="384">Edges</text></g><path d="M 576 392 L 253.24 392" fill="none" stroke="#000000" stroke-miterlimit="10" stroke-dasharray="3 3" pointer-events="none"/><path d="M 261.12 387.5 L 252.12 392 L 261.12 396.5" fill="none" stroke="#000000" stroke-miterlimit="10" pointer-events="none"/><g fill="#000000" font-family="Helvetica" text-anchor="middle" font-size="11px"><rect fill="#ffffff" stroke="none" x="268" y="377" width="47" height="14" stroke-width="0"/><text x="291" y="386">Topology</text></g><path d="M 251 451 L 567.88 451" fill="none" stroke="#000000" stroke-miterlimit="10" stroke-dasharray="3 3" pointer-events="none"/><path d="M 574.88 451 L 567.88 454.5 L 567.88 447.5 Z" fill="#000000" stroke="#000000" stroke-miterlimit="10" pointer-events="none"/><g fill="#000000" font-family="Helvetica" text-anchor="middle" font-size="11px"><rect fill="#ffffff" stroke="none" x="329" y="436" width="172" height="14" stroke-width="0"/><text x="414" y="445">setRestrictionsAndCosts(topology)</text></g><path d="M 586 461 L 782.88 461" fill="none" stroke="#000000" stroke-miterlimit="10" stroke-dasharray="3 3" pointer-events="none"/><path d="M 789.88 461 L 782.88 464.5 L 782.88 457.5 Z" fill="#000000" stroke="#000000" stroke-miterlimit="10" pointer-events="none"/><g fill="#000000" font-family="Helvetica" text-anchor="middle" font-size="11px"><rect fill="#ffffff" stroke="none" x="604" y="446" width="172" height="14" stroke-width="0"/><text x="689" y="455">setRestrictionsAndCosts(topology)</text></g><path d="M 791 490 L 588.24 490" fill="none" stroke="#000000" stroke-miterlimit="10" stroke-dasharray="3 3" pointer-events="none"/><path d="M 596.12 485.5 L 587.12 490 L 596.12 494.5" fill="none" stroke="#000000" stroke-miterlimit="10" pointer-events="none"/><path d="M 576 499 L 253.24 499" fill="none" stroke="#000000" stroke-miterlimit="10" stroke-dasharray="3 3" pointer-events="none"/><path d="M 261.12 494.5 L 252.12 499 L 261.12 503.5" fill="none" stroke="#000000" stroke-miterlimit="10" pointer-events="none"/><path d="M 251 551 L 581 551 Q 591 551 601 551 L 927.88 551" fill="none" stroke="#000000" stroke-miterlimit="10" stroke-dasharray="3 3" pointer-events="none"/><path d="M 934.88 551 L 927.88 554.5 L 927.88 547.5 Z" fill="#000000" stroke="#000000" stroke-miterlimit="10" pointer-events="none"/><g fill="#000000" font-family="Helvetica" text-anchor="middle" font-size="11px"><rect fill="#ffffff" stroke="none" x="511" y="536" width="162" height="14" stroke-width="0"/><text x="591" y="545">«create»(topology, configuration)</text></g><path d="M 936 665 L 253.24 665" fill="none" stroke="#000000" stroke-miterlimit="10" stroke-dasharray="3 3" pointer-events="none"/><path d="M 261.12 660.5 L 252.12 665 L 261.12 669.5" fill="none" stroke="#000000" stroke-miterlimit="10" pointer-events="none"/><g fill="#000000" font-family="Helvetica" text-anchor="middle" font-size="11px"><rect fill="#ffffff" stroke="none" x="269" y="650" width="66" height="14" stroke-width="0"/><text x="301" y="659">GraphBuilder</text></g><path d="M 241 691 L 88.24 691" fill="none" stroke="#000000" stroke-miterlimit="10" stroke-dasharray="3 3" pointer-events="none"/><path d="M 96.12 686.5 L 87.12 691 L 96.12 695.5" fill="none" stroke="#000000" stroke-miterlimit="10" pointer-events="none"/><path d="M 86 771 L 232.88 771" fill="none" stroke="#000000" stroke-miterlimit="10" stroke-dasharray="3 3" pointer-events="none"/><path d="M 239.88 771 L 232.88 774.5 L 232.88 767.5 Z" fill="#000000" stroke="#000000" stroke-miterlimit="10" pointer-events="none"/><g fill="#000000" font-family="Helvetica" text-anchor="middle" font-size="11px"><rect fill="#ffffff" stroke="none" x="127" y="756" width="76" height="14" stroke-width="0"/><text x="164" y="765">getLineGraph()</text></g><path d="M 251 781 L 927.88 781" fill="none" stroke="#000000" stroke-miterlimit="10" stroke-dasharray="3 3" pointer-events="none"/><path d="M 934.88 781 L 927.88 784.5 L 927.88 777.5 Z" fill="#000000" stroke="#000000" stroke-miterlimit="10" pointer-events="none"/><g fill="#000000" font-family="Helvetica" text-anchor="middle" font-size="11px"><rect fill="#ffffff" stroke="none" x="543" y="766" width="104" height="14" stroke-width="0"/><text x="594" y="775">getBoostLineGraph()</text></g><path d="M 936 810 L 253.24 810" fill="none" stroke="#000000" stroke-miterlimit="10" stroke-dasharray="3 3" pointer-events="none"/><path d="M 261.12 805.5 L 252.12 810 L 261.12 814.5" fill="none" stroke="#000000" stroke-miterlimit="10" pointer-events="none"/><g fill="#000000" font-family="Helvetica" text-anchor="middle" font-size="11px"><rect fill="#ffffff" stroke="none" x="273" y="795" width="78" height="14" stroke-width="0"/><text x="311" y="804">LineGraphType</text></g><path d="M 241 828 L 88.24 828" fill="none" stroke="#000000" stroke-miterlimit="10" stroke-dasharray="3 3" pointer-events="none"/><path d="M 96.12 823.5 L 87.12 828 L 96.12 832.5" fill="none" stroke="#000000" stroke-miterlimit="10" pointer-events="none"/><g fill="#000000" font-family="Helvetica" text-anchor="middle" font-size="11px"><rect fill="#ffffff" stroke="none" x="103" y="813" width="78" height="14" stroke-width="0"/><text x="141" y="822">LineGraphType</text></g><path d="M 1 1 L 121 1 L 121 16 L 111 31 L 1 31 Z" fill="#ffffff" stroke="#000000" stroke-miterlimit="10" pointer-events="none"/><path d="M 121 1 L 1071 1 L 1071 881 L 1 881 L 1 31" fill="none" stroke="#000000" stroke-miterlimit="10" pointer-events="none"/><g fill="#000000" font-family="Helvetica" text-anchor="middle" font-size="12px"><text x="61.5" y="20.5">update topology</text></g></g></svg>